<svg width="67" height="24" viewBox="0 0 67 24" fill="none" xmlns="http://www.w3.org/2000/svg">
<path fill-rule="evenodd" clip-rule="evenodd" d="M12.1053 2H7.89474C7.02263 2 6.31579 2.70684 6.31579 3.57895V7.78947C6.31579 7.97421 6.34737 8.15105 6.40579 8.31579H4.73684C3.86474 8.31579 3.15789 9.02263 3.15789 9.89474V14.1053C3.15789 14.29 3.18947 14.4668 3.24789 14.6316H1.57895C0.706842 14.6316 0 15.3384 0 16.2105V20.4211C0 21.2932 0.706842 22 1.57895 22H5.78947C6.19368 22 6.56263 21.8479 6.84211 21.5979C7.12158 21.8479 7.49053 22 7.89474 22H12.1053C12.5095 22 12.8784 21.8479 13.1579 21.5979C13.4374 21.8479 13.8063 22 14.2105 22H18.4211C19.2932 22 20 21.2932 20 20.4211V16.2105C20 15.3384 19.2932 14.6316 18.4211 14.6316H16.7521C16.8105 14.4668 16.8421 14.29 16.8421 14.1053V9.89474C16.8421 9.02263 16.1353 8.31579 15.2632 8.31579H13.5942C13.6526 8.15105 13.6842 7.97421 13.6842 7.78947V3.57895C13.6842 2.70684 12.9774 2 12.1053 2ZM5.26316 15.6842V16.7368C5.26316 17.3184 4.79211 17.7895 4.21053 17.7895H3.15789C2.57632 17.7895 2.10526 17.3184 2.10526 16.7368V15.6842H1.57895C1.28842 15.6842 1.05263 15.92 1.05263 16.2105V20.4211C1.05263 20.7116 1.28842 20.9474 1.57895 20.9474H5.78947C6.08 20.9474 6.31579 20.7116 6.31579 20.4211V16.2105C6.31579 15.92 6.08 15.6842 5.78947 15.6842H5.26316ZM17.8947 15.6842V16.7368C17.8947 17.3184 17.4237 17.7895 16.8421 17.7895H15.7895C15.2079 17.7895 14.7368 17.3184 14.7368 16.7368V15.6842H14.2105C13.92 15.6842 13.6842 15.92 13.6842 16.2105V20.4211C13.6842 20.7116 13.92 20.9474 14.2105 20.9474H18.4211C18.7116 20.9474 18.9474 20.7116 18.9474 20.4211V16.2105C18.9474 15.92 18.7116 15.6842 18.4211 15.6842H17.8947ZM11.5789 15.6842V16.7368C11.5789 17.3184 11.1079 17.7895 10.5263 17.7895H9.47368C8.89211 17.7895 8.42105 17.3184 8.42105 16.7368V15.6842H7.89474C7.60421 15.6842 7.36842 15.92 7.36842 16.2105V20.4211C7.36842 20.7116 7.60421 20.9474 7.89474 20.9474H12.1053C12.3958 20.9474 12.6316 20.7116 12.6316 20.4211V16.2105C12.6316 15.92 12.3958 15.6842 12.1053 15.6842H11.5789ZM8.42105 9.36842V10.4211C8.42105 11.0026 7.95 11.4737 7.36842 11.4737H6.31579C5.73421 11.4737 5.26316 11.0026 5.26316 10.4211V9.36842H4.73684C4.44632 9.36842 4.21053 9.60421 4.21053 9.89474V14.1053C4.21053 14.3958 4.44632 14.6316 4.73684 14.6316H8.94737C9.2379 14.6316 9.47368 14.3958 9.47368 14.1053V9.89474C9.47368 9.60421 9.2379 9.36842 8.94737 9.36842H8.42105ZM14.7368 9.36842V10.4211C14.7368 11.0026 14.2658 11.4737 13.6842 11.4737H12.6316C12.05 11.4737 11.5789 11.0026 11.5789 10.4211V9.36842H11.0526C10.7621 9.36842 10.5263 9.60421 10.5263 9.89474V14.1053C10.5263 14.3958 10.7621 14.6316 11.0526 14.6316H15.2632C15.5537 14.6316 15.7895 14.3958 15.7895 14.1053V9.89474C15.7895 9.60421 15.5537 9.36842 15.2632 9.36842H14.7368ZM11.5789 3.05263V4.10526C11.5789 4.68684 11.1079 5.15789 10.5263 5.15789H9.47368C8.89211 5.15789 8.42105 4.68684 8.42105 4.10526V3.05263H7.89474C7.60421 3.05263 7.36842 3.28842 7.36842 3.57895V7.78947C7.36842 8.08 7.60421 8.31579 7.89474 8.31579H12.1053C12.3958 8.31579 12.6316 8.08 12.6316 7.78947V3.57895C12.6316 3.28842 12.3958 3.05263 12.1053 3.05263H11.5789Z" fill="#325A6D"/>
<path d="M27.5682 8.39205V6.36364H37.125V8.39205H33.5625V18H31.1307V8.39205H27.5682ZM38.6989 6.36364H41.733L44.9375 14.1818H45.0739L48.2784 6.36364H51.3125V18H48.9261V10.4261H48.8295L45.8182 17.9432H44.1932L41.1818 10.3977H41.0852V18H38.6989V6.36364ZM53.3395 6.36364H56.3736L59.5781 14.1818H59.7145L62.919 6.36364H65.9531V18H63.5668V10.4261H63.4702L60.4588 17.9432H58.8338L55.8224 10.3977H55.7259V18H53.3395V6.36364Z" fill="#325A6D"/>
</svg>
