<svg width="122" height="143" viewBox="0 0 122 143" fill="none" xmlns="http://www.w3.org/2000/svg">
<g clip-path="url(#clip0_594_5828)">
<rect width="122" height="143" rx="5" fill="#325A6D"/>
<rect width="62.2827" height="140.542" transform="translate(47.4727 -0.260742) rotate(-40.2749)" fill="white" fill-opacity="0.1"/>
<rect width="24.3562" height="48.0719" transform="translate(-19 123.745) rotate(-40.2749)" fill="white" fill-opacity="0.1"/>
<path fill-rule="evenodd" clip-rule="evenodd" d="M47.1789 59.772C46.99 59.5872 46.99 59.2861 47.1789 59.0999C47.3664 58.9138 47.672 58.9138 47.8609 59.0999L49.947 61.1557L56.1774 55.0158C56.3649 54.8297 56.6704 54.8297 56.8594 55.0158C57.0482 55.2006 57.0482 55.5017 56.8594 55.6879L50.2873 62.1645C50.0998 62.3493 49.7942 62.3493 49.6053 62.1645L47.1789 59.7734V59.772ZM46.0164 54.1275C44.8164 55.6961 44.297 57.6696 44.572 59.616C44.8484 61.5624 45.8984 63.3211 47.49 64.5051C49.0817 65.6877 51.0858 66.2009 53.0609 65.9286C55.0359 65.6562 56.8205 64.6214 58.0205 63.0529C59.2219 61.4843 59.7413 59.5094 59.465 57.5629C59.1886 55.6166 58.14 53.8579 56.5483 52.6753C54.9552 51.4913 52.9526 50.9794 50.9775 51.2518C49.0024 51.5242 47.2179 52.5576 46.0164 54.1275ZM70.5206 39.6765L58.5555 46.4847L64.0556 49.615L76.0207 42.8068L70.5206 39.6779V39.6765ZM57.593 45.937L52.0915 42.8067L64.0552 36L69.5553 39.1303L57.593 45.937ZM64.5388 64.0492V50.4347L76.5 43.6293V57.2439L64.5388 64.0492ZM51.6111 50.2402C54.5361 50.102 57.3263 51.4598 58.9932 53.8331C60.6598 56.2065 60.9682 59.2586 59.8071 61.9087L63.5738 64.0521L63.5724 50.4347L51.6112 43.6294L51.6111 50.2402Z" fill="#F5E003"/>
<path d="M39.119 86C38.4843 86 38.0177 85.972 37.719 85.916C37.4203 85.86 37.271 85.7947 37.271 85.72L38.111 83.914C38.3257 83.9513 38.769 83.9887 39.441 84.026C40.113 84.054 40.9857 84.068 42.059 84.068H43.165C43.4917 84.068 43.711 84.0213 43.823 83.928C43.935 83.8347 43.991 83.6993 43.991 83.522V83.382C43.991 83.158 43.935 83.004 43.823 82.92C43.711 82.836 43.4917 82.794 43.165 82.794H39.959C39.0163 82.794 38.3303 82.6213 37.901 82.276C37.4717 81.9213 37.257 81.3473 37.257 80.554V80.05C37.257 79.6393 37.3317 79.2613 37.481 78.916C37.6397 78.5707 37.9057 78.2953 38.279 78.09C38.6523 77.8753 39.1657 77.768 39.819 77.768H44.467C45.0363 77.768 45.5077 77.8007 45.881 77.866C46.2637 77.9313 46.455 78.0013 46.455 78.076L46.035 79.812C45.7737 79.784 45.279 79.756 44.551 79.728C43.8323 79.6907 42.9177 79.672 41.807 79.672L40.799 79.658C40.5097 79.658 40.3043 79.7 40.183 79.784C40.0617 79.8587 39.9963 80.0033 39.987 80.218V80.316C39.987 80.5307 40.0523 80.68 40.183 80.764C40.3137 80.848 40.5237 80.89 40.813 80.89H43.893C44.4903 80.89 44.999 80.9507 45.419 81.072C45.839 81.1933 46.161 81.4173 46.385 81.744C46.609 82.0613 46.721 82.5327 46.721 83.158V83.662C46.721 84.362 46.539 84.9267 46.175 85.356C45.8203 85.7853 45.1997 86 44.313 86H39.119ZM50.275 86C49.5657 86 49.0804 85.8507 48.819 85.552C48.5577 85.2533 48.427 84.8053 48.427 84.208V81.492H47.279V79.728H47.867C48.0257 79.728 48.1517 79.7 48.245 79.644C48.3477 79.5787 48.413 79.4667 48.441 79.308L48.707 77.81H51.003V79.728H53.341V81.492H51.003V83.662C51.003 83.8953 51.059 84.0493 51.171 84.124C51.283 84.1987 51.451 84.236 51.675 84.236H53.075L53.355 85.86C53.159 85.888 52.8604 85.9207 52.459 85.958C52.0577 85.986 51.619 86 51.143 86H50.275ZM56.4719 86C55.8559 86 55.3939 85.9113 55.0859 85.734C54.7779 85.5567 54.5725 85.314 54.4699 85.006C54.3765 84.6887 54.3299 84.3247 54.3299 83.914V81.8C54.3299 81.408 54.3812 81.058 54.4839 80.75C54.5865 80.4327 54.7872 80.1853 55.0859 80.008C55.3939 79.8213 55.8559 79.728 56.4719 79.728H60.3639C60.9799 79.728 61.4372 79.8213 61.7359 80.008C62.0439 80.1853 62.2446 80.4327 62.3379 80.75C62.4405 81.058 62.4919 81.408 62.4919 81.8V83.914C62.4919 84.3247 62.4405 84.6887 62.3379 85.006C62.2446 85.314 62.0439 85.5567 61.7359 85.734C61.4372 85.9113 60.9799 86 60.3639 86H56.4719ZM57.5919 84.236H59.2579C59.7059 84.236 59.9252 84.0493 59.9159 83.676V82.052C59.9159 81.8653 59.8645 81.7253 59.7619 81.632C59.6685 81.5387 59.5005 81.492 59.2579 81.492H57.6059C57.3632 81.492 57.1905 81.5387 57.0879 81.632C56.9852 81.7253 56.9339 81.8653 56.9339 82.052V83.676C56.9245 84.0493 57.1439 84.236 57.5919 84.236ZM66.1685 86C65.5525 86 65.0765 85.9113 64.7405 85.734C64.4139 85.5567 64.1899 85.314 64.0685 85.006C63.9472 84.6887 63.8865 84.3247 63.8865 83.914V81.8C63.8865 81.4267 63.9472 81.086 64.0685 80.778C64.1992 80.4607 64.4279 80.2087 64.7545 80.022C65.0812 79.826 65.5525 79.728 66.1685 79.728H67.9605C69.0339 79.728 69.8225 79.7747 70.3265 79.868C70.8305 79.9613 71.1152 80.0547 71.1805 80.148L70.7605 81.632C70.5645 81.6133 70.2099 81.5853 69.6965 81.548C69.1832 81.5107 68.6185 81.492 68.0025 81.492H67.1485C66.9059 81.492 66.7332 81.5387 66.6305 81.632C66.5279 81.7253 66.4765 81.8653 66.4765 82.052V83.676C66.4765 83.8627 66.5232 84.0027 66.6165 84.096C66.7099 84.1893 66.8872 84.236 67.1485 84.236H67.8625C68.5532 84.236 69.1459 84.222 69.6405 84.194C70.1445 84.1567 70.5132 84.124 70.7465 84.096L71.5865 85.426C71.5865 85.5567 71.3532 85.6873 70.8865 85.818C70.4292 85.9393 69.7432 86 68.8285 86H66.1685ZM79.8374 86.14C79.3801 86.14 78.9788 86.0933 78.6334 86C78.2974 85.9067 77.9754 85.706 77.6674 85.398C77.4808 85.2113 77.2941 85.0247 77.1074 84.838C76.9208 84.6513 76.7341 84.4647 76.5474 84.278C76.3981 84.1193 76.2768 83.998 76.1834 83.914C76.0901 83.8207 75.9968 83.76 75.9034 83.732C75.8194 83.6947 75.6981 83.676 75.5394 83.676C75.3341 83.676 75.2128 83.6947 75.1754 83.732C75.1381 83.7693 75.1194 83.8953 75.1194 84.11V86H72.5714V77.138H75.1194V81.884H75.5674C75.7261 81.884 75.8754 81.8187 76.0154 81.688C76.0994 81.604 76.2254 81.45 76.3934 81.226C76.5708 81.002 76.7621 80.7547 76.9674 80.484C77.1728 80.2133 77.3594 79.966 77.5274 79.742H80.4674L80.2434 80.176C80.0194 80.456 79.7581 80.764 79.4594 81.1C79.1701 81.436 78.8854 81.744 78.6054 82.024C78.3348 82.304 78.1154 82.5 77.9474 82.612C78.3114 82.8547 78.6521 83.116 78.9694 83.396C79.2868 83.6667 79.6928 83.9093 80.1874 84.124C80.5141 84.264 80.7894 84.3573 81.0134 84.404C81.2468 84.4413 81.4101 84.46 81.5034 84.46L81.1114 86C81.0181 86.028 80.8594 86.056 80.6354 86.084C80.4208 86.1213 80.1548 86.14 79.8374 86.14ZM24.4411 102C23.4425 102 22.7191 101.781 22.2711 101.342C21.8231 100.903 21.5991 100.194 21.5991 99.214V96.652C21.5991 95.644 21.8465 94.9113 22.3411 94.454C22.8358 93.9873 23.5358 93.754 24.4411 93.754H28.5291C29.1731 93.754 29.6631 93.7913 29.9991 93.866C30.3445 93.9313 30.5171 94.0013 30.5171 94.076L30.0831 95.826C29.8498 95.798 29.3925 95.77 28.7111 95.742C28.0391 95.7047 27.1898 95.686 26.1631 95.686H25.4491C25.0105 95.686 24.7118 95.77 24.5531 95.938C24.4038 96.0967 24.3291 96.344 24.3291 96.68V99.074C24.3291 99.3913 24.3945 99.6387 24.5251 99.816C24.6651 99.984 24.9731 100.068 25.4491 100.068H26.0231C27.3578 100.068 28.3751 100.054 29.0751 100.026C29.7751 99.9887 30.1951 99.9513 30.3351 99.914L31.1891 101.426C31.1891 101.473 31.0911 101.543 30.8951 101.636C30.7085 101.729 30.3865 101.813 29.9291 101.888C29.4811 101.963 28.8558 102 28.0531 102H24.4411ZM34.3166 102C33.7006 102 33.2386 101.911 32.9306 101.734C32.6226 101.557 32.4173 101.314 32.3146 101.006C32.2213 100.689 32.1746 100.325 32.1746 99.914V97.8C32.1746 97.408 32.2259 97.058 32.3286 96.75C32.4313 96.4327 32.6319 96.1853 32.9306 96.008C33.2386 95.8213 33.7006 95.728 34.3166 95.728H38.2086C38.8246 95.728 39.2819 95.8213 39.5806 96.008C39.8886 96.1853 40.0893 96.4327 40.1826 96.75C40.2853 97.058 40.3366 97.408 40.3366 97.8V99.914C40.3366 100.325 40.2853 100.689 40.1826 101.006C40.0893 101.314 39.8886 101.557 39.5806 101.734C39.2819 101.911 38.8246 102 38.2086 102H34.3166ZM35.4366 100.236H37.1026C37.5506 100.236 37.7699 100.049 37.7606 99.676V98.052C37.7606 97.8653 37.7093 97.7253 37.6066 97.632C37.5133 97.5387 37.3453 97.492 37.1026 97.492H35.4506C35.2079 97.492 35.0353 97.5387 34.9326 97.632C34.8299 97.7253 34.7786 97.8653 34.7786 98.052V99.676C34.7693 100.049 34.9886 100.236 35.4366 100.236ZM41.8713 102V95.728H43.9013L44.4613 96.008C44.8533 95.9333 45.3246 95.868 45.8753 95.812C46.4353 95.756 46.9579 95.728 47.4433 95.728H48.1433C48.6099 95.728 48.9693 95.7933 49.2213 95.924C49.4733 96.0547 49.6506 96.218 49.7533 96.414C49.8653 96.61 49.9306 96.8107 49.9493 97.016C49.9773 97.212 49.9913 97.38 49.9913 97.52V102H47.4293V98.052C47.4293 97.6787 47.2053 97.492 46.7573 97.492H44.8813C44.7039 97.492 44.5873 97.5107 44.5312 97.548C44.4846 97.576 44.4613 97.66 44.4613 97.8V102H41.8713ZM54.0416 102C53.3323 102 52.847 101.851 52.5856 101.552C52.3243 101.253 52.1936 100.805 52.1936 100.208V97.492H51.0456V95.728H51.6336C51.7923 95.728 51.9183 95.7 52.0116 95.644C52.1143 95.5787 52.1796 95.4667 52.2076 95.308L52.4736 93.81H54.7696V95.728H57.1076V97.492H54.7696V99.662C54.7696 99.8953 54.8256 100.049 54.9376 100.124C55.0496 100.199 55.2176 100.236 55.4416 100.236H56.8416L57.1216 101.86C56.9256 101.888 56.627 101.921 56.2256 101.958C55.8243 101.986 55.3856 102 54.9096 102H54.0416ZM58.2365 102V95.728H60.2245L60.7565 96.008C61.1858 95.728 61.7552 95.588 62.4645 95.588C62.9312 95.588 63.3418 95.6393 63.6965 95.742C64.0512 95.8353 64.3358 95.938 64.5505 96.05C64.7745 96.162 64.9145 96.2413 64.9705 96.288L64.2705 98.108C64.1772 98.0427 63.9998 97.954 63.7385 97.842C63.4865 97.73 63.1878 97.6273 62.8425 97.534C62.4972 97.4313 62.1332 97.38 61.7505 97.38H61.5965C61.3352 97.38 61.1345 97.4267 60.9945 97.52C60.8545 97.604 60.7845 97.7953 60.7845 98.094V102H58.2365ZM67.9494 102C67.3334 102 66.8714 101.911 66.5634 101.734C66.2554 101.557 66.0501 101.314 65.9474 101.006C65.8541 100.689 65.8074 100.325 65.8074 99.914V97.8C65.8074 97.408 65.8588 97.058 65.9614 96.75C66.0641 96.4327 66.2648 96.1853 66.5634 96.008C66.8714 95.8213 67.3334 95.728 67.9494 95.728H71.8414C72.4574 95.728 72.9148 95.8213 73.2134 96.008C73.5214 96.1853 73.7221 96.4327 73.8154 96.75C73.9181 97.058 73.9694 97.408 73.9694 97.8V99.914C73.9694 100.325 73.9181 100.689 73.8154 101.006C73.7221 101.314 73.5214 101.557 73.2134 101.734C72.9148 101.911 72.4574 102 71.8414 102H67.9494ZM69.0694 100.236H70.7354C71.1834 100.236 71.4028 100.049 71.3934 99.676V98.052C71.3934 97.8653 71.3421 97.7253 71.2394 97.632C71.1461 97.5387 70.9781 97.492 70.7354 97.492H69.0834C68.8408 97.492 68.6681 97.5387 68.5654 97.632C68.4628 97.7253 68.4114 97.8653 68.4114 98.052V99.676C68.4021 100.049 68.6214 100.236 69.0694 100.236ZM75.6441 102V94.244L75.5041 93.124H78.1921V102H75.6441ZM80.0054 102V94.244L79.8654 93.124H82.5534V102H80.0054ZM86.3687 102C85.7527 102 85.2767 101.911 84.9407 101.734C84.6141 101.557 84.3901 101.314 84.2687 101.006C84.1474 100.689 84.0867 100.325 84.0867 99.914V97.8C84.0867 97.4267 84.1474 97.086 84.2687 96.778C84.3994 96.4607 84.6281 96.2087 84.9547 96.022C85.2814 95.826 85.7527 95.728 86.3687 95.728H89.2667C89.9947 95.728 90.5501 95.8167 90.9327 95.994C91.3247 96.162 91.5907 96.4047 91.7307 96.722C91.8801 97.03 91.9547 97.3893 91.9547 97.8V99.592H89.5047C88.6647 99.592 88.0254 99.5733 87.5867 99.536C87.1574 99.4987 86.8541 99.4753 86.6767 99.466V99.676C86.6674 100.049 86.8914 100.236 87.3487 100.236H87.7827C88.5294 100.236 89.2201 100.222 89.8547 100.194C90.4894 100.157 90.9607 100.124 91.2687 100.096L92.1087 101.426C92.1087 101.519 92.0294 101.608 91.8707 101.692C91.7121 101.776 91.4321 101.851 91.0307 101.916C90.6387 101.972 90.0787 102 89.3507 102H86.3687ZM86.6767 98.248H89.3647V98.052C89.3647 97.8653 89.3461 97.7347 89.3087 97.66C89.2807 97.5853 89.1827 97.5387 89.0147 97.52C88.8467 97.5013 88.5621 97.492 88.1607 97.492H87.3487C86.9007 97.492 86.6767 97.6787 86.6767 98.052V98.248ZM93.5099 102V95.728H95.4979L96.0299 96.008C96.4593 95.728 97.0286 95.588 97.7379 95.588C98.2046 95.588 98.6153 95.6393 98.9699 95.742C99.3246 95.8353 99.6093 95.938 99.8239 96.05C100.048 96.162 100.188 96.2413 100.244 96.288L99.5439 98.108C99.4506 98.0427 99.2733 97.954 99.0119 97.842C98.7599 97.73 98.4613 97.6273 98.1159 97.534C97.7706 97.4313 97.4066 97.38 97.0239 97.38H96.8699C96.6086 97.38 96.4079 97.4267 96.2679 97.52C96.1279 97.604 96.0579 97.7953 96.0579 98.094V102H93.5099Z" fill="white"/>
</g>
<defs>
<clipPath id="clip0_594_5828">
<rect width="122" height="143" rx="5" fill="white"/>
</clipPath>
</defs>
</svg>
