<svg width="122" height="143" viewBox="0 0 122 143" fill="none" xmlns="http://www.w3.org/2000/svg">
<g clip-path="url(#clip0_594_5843)">
<rect width="122" height="143" rx="5" fill="#325A6D"/>
<rect width="62.2827" height="140.542" transform="translate(50.4727 -0.260742) rotate(-40.2749)" fill="white" fill-opacity="0.1"/>
<rect width="24.3562" height="48.0719" transform="translate(-19 123.745) rotate(-40.2749)" fill="white" fill-opacity="0.1"/>
<path d="M69.6594 46.3197C70.6429 46.3197 71.534 46.7846 72.1795 47.534C72.8257 48.2835 73.2255 49.3206 73.2255 50.4651C73.2255 51.6086 72.8257 52.6447 72.1811 53.3952C71.534 54.1466 70.6429 54.6115 69.6594 54.6115C68.675 54.6115 67.783 54.1466 67.1279 53.3835C66.485 52.6218 66.094 51.5959 66.094 50.4651C66.094 49.3206 66.4938 48.2835 67.1384 47.534C67.783 46.7846 68.675 46.3197 69.6594 46.3197ZM63.8914 56.9976L62.9801 55.9381C62.8479 55.7843 62.842 55.5382 62.9621 55.3756L64.0174 53.7516C63.9502 53.5959 63.8872 53.4357 63.8288 53.2726C63.7721 53.1135 63.7197 52.9489 63.6714 52.7805L61.9147 52.4968C61.7371 52.468 61.6086 52.2907 61.6086 52.0881L61.6078 48.8431C61.6078 48.6248 61.7539 48.4456 61.9387 48.4305L63.6714 48.1502C63.7197 47.9818 63.7726 47.8167 63.833 47.6473C63.8935 47.4803 63.9536 47.327 64.0174 47.1791L62.9486 45.5336C62.8407 45.3676 62.8579 45.1367 62.981 44.9931L64.219 43.5532C63.3014 42.9697 62.3212 42.5049 61.2945 42.1792C60.1573 41.8189 58.9558 41.6255 57.7111 41.6255C55.0075 41.6255 52.4882 42.544 50.3738 44.1255C48.1897 45.7597 46.4343 48.1024 45.3487 50.8728C45.0783 51.5632 44.9657 52.2795 45.009 52.9811C45.0523 53.6813 45.2526 54.3717 45.6062 55.0114C45.9602 55.651 46.4175 56.1495 46.9466 56.4849C47.4749 56.8199 48.0826 56.9976 48.739 56.9976H63.8914ZM71.804 44.4477C71.6243 44.3613 71.4395 44.2846 71.2522 44.2202C71.1124 44.1836 70.9998 44.0493 70.9788 43.8745L70.7466 41.9307H68.5738L68.3412 43.8745C68.3218 44.0302 68.2265 44.167 68.0883 44.2133C67.8994 44.2773 67.7129 44.354 67.5231 44.4443C67.3303 44.538 67.1472 44.6401 66.9696 44.7534C66.8508 44.829 66.7 44.8222 66.5849 44.7211L65.2378 43.5381L63.702 45.3237L64.7145 46.8827C64.8002 47.0087 64.8178 47.1879 64.7473 47.3378C64.6511 47.5419 64.5646 47.7484 64.4877 47.9637C64.4096 48.1844 64.3433 48.3988 64.2891 48.6131C64.2576 48.7762 64.1421 48.907 63.9914 48.9315L62.3191 49.202V51.7292L63.9914 51.9992C64.1253 52.0217 64.2429 52.1325 64.2828 52.2932C64.3382 52.5158 64.4063 52.738 64.484 52.9562C64.5608 53.1721 64.6494 53.3854 64.7473 53.5929C64.8124 53.7311 64.8065 53.9064 64.7195 54.0402L63.7016 55.607L65.2378 57.3936L66.5778 56.2159C66.6866 56.1158 66.8407 56.0953 66.9696 56.1773C67.1456 56.2891 67.3232 56.3897 67.5092 56.4796C67.6986 56.5704 67.883 56.6475 68.0673 56.7105C68.2076 56.7471 68.3202 56.8814 68.3412 57.0567L68.5738 59H70.7466L70.9792 57.0557C70.9986 56.9 71.0939 56.7633 71.2321 56.7169C71.4256 56.6519 71.6171 56.5728 71.8023 56.484C71.985 56.3966 72.1685 56.2926 72.3499 56.1773C72.4688 56.1016 72.6196 56.1085 72.7346 56.2096L74.0826 57.3936L75.6188 55.607L74.6059 54.0485C74.5198 53.922 74.5022 53.7428 74.5727 53.5929C74.6706 53.3854 74.7592 53.1721 74.8364 52.9553C74.9104 52.7482 74.9763 52.5344 75.0309 52.3181C75.0624 52.155 75.1779 52.0236 75.3286 51.9992L77 51.7292V49.202L75.3286 48.9319C75.1947 48.9095 75.0771 48.7987 75.0372 48.638C74.9817 48.4158 74.9141 48.1942 74.8364 47.9759C74.7592 47.7596 74.6701 47.5458 74.5723 47.3378C74.5072 47.1996 74.5131 47.0243 74.6 46.8905L75.6188 45.3227L74.0826 43.5371L72.7418 44.7153C72.633 44.8149 72.4789 44.8354 72.3499 44.7534C72.1723 44.6401 71.9888 44.5375 71.804 44.4477ZM61.7342 28.936C60.7049 27.7402 59.2821 27 57.7111 27C56.1493 27 54.7349 27.7309 53.6989 28.9257C52.6608 30.1337 52.0238 31.7875 52.0238 33.6136C52.0238 35.4397 52.6608 37.0934 53.6897 38.2897C54.7177 39.4874 56.1401 40.2271 57.7111 40.2271C59.2817 40.2271 60.704 39.4864 61.7333 38.2897C62.7622 37.0934 63.3992 35.4397 63.3992 33.6136C63.3992 31.787 62.7626 30.1327 61.7342 28.936Z" fill="#F5E003"/>
<path d="M40.4538 79V72.658H37.1218V70.754H46.5438V72.658H43.1698V79H40.4538ZM47.3888 79V72.728H49.3768L49.9088 73.008C50.3382 72.728 50.9075 72.588 51.6168 72.588C52.0835 72.588 52.4942 72.6393 52.8488 72.742C53.2035 72.8353 53.4882 72.938 53.7028 73.05C53.9268 73.162 54.0668 73.2413 54.1228 73.288L53.4228 75.108C53.3295 75.0427 53.1522 74.954 52.8908 74.842C52.6388 74.73 52.3402 74.6273 51.9948 74.534C51.6495 74.4313 51.2855 74.38 50.9028 74.38H50.7488C50.4875 74.38 50.2868 74.4267 50.1468 74.52C50.0068 74.604 49.9368 74.7953 49.9368 75.094V79H47.3888ZM56.6252 79C55.8039 79 55.2159 78.846 54.8612 78.538C54.5066 78.23 54.3292 77.7167 54.3292 76.998C54.3292 76.3353 54.5112 75.8547 54.8752 75.556C55.2486 75.2573 55.8319 75.108 56.6252 75.108H57.0592C57.5819 75.108 58.0812 75.1267 58.5572 75.164C59.0332 75.2013 59.4439 75.2387 59.7892 75.276V75.052C59.7892 74.9213 59.7612 74.7953 59.7052 74.674C59.6492 74.5527 59.4532 74.492 59.1172 74.492H58.4172C57.3999 74.492 56.6159 74.5107 56.0652 74.548C55.5146 74.576 55.1739 74.604 55.0432 74.632L54.8892 73.148C54.8892 73.0547 55.0526 72.98 55.3792 72.924C55.7059 72.8587 56.1539 72.812 56.7232 72.784C57.2926 72.7467 57.9412 72.728 58.6692 72.728H60.0692C60.6852 72.728 61.1566 72.8213 61.4832 73.008C61.8099 73.1853 62.0339 73.428 62.1552 73.736C62.2766 74.044 62.3372 74.3987 62.3372 74.8V79H60.3492L59.8032 78.72C59.5792 78.7667 59.2199 78.8273 58.7252 78.902C58.2399 78.9673 57.6799 79 57.0452 79H56.6252ZM57.4372 77.348H59.3692C59.5746 77.348 59.6959 77.3293 59.7332 77.292C59.7706 77.2547 59.7892 77.138 59.7892 76.942V76.452H57.4372C57.2599 76.452 57.1292 76.4847 57.0452 76.55C56.9612 76.6153 56.9192 76.7413 56.9192 76.928C56.9192 77.1053 56.9612 77.222 57.0452 77.278C57.1292 77.3247 57.2599 77.348 57.4372 77.348ZM65.9335 79C65.3175 79 64.8555 78.9113 64.5475 78.734C64.2488 78.5473 64.0481 78.3 63.9455 77.992C63.8521 77.6747 63.8055 77.3153 63.8055 76.914V74.8C63.8055 74.4453 63.8521 74.114 63.9455 73.806C64.0481 73.4887 64.2488 73.232 64.5475 73.036C64.8555 72.8307 65.3175 72.728 65.9335 72.728H66.3675C67.0488 72.728 67.6648 72.7467 68.2155 72.784C68.7755 72.8213 69.1581 72.854 69.3635 72.882V70.124H71.9535V79H69.9235L69.3775 78.72C68.9855 78.7853 68.5608 78.8507 68.1035 78.916C67.6555 78.972 67.0721 79 66.3535 79H65.9335ZM67.0675 77.236H68.9295C69.1255 77.236 69.2468 77.2127 69.2935 77.166C69.3401 77.1193 69.3635 77.0027 69.3635 76.816V74.59C69.1301 74.5713 68.8548 74.5527 68.5375 74.534C68.2201 74.506 67.8701 74.492 67.4875 74.492H67.0675C66.6195 74.492 66.3955 74.6787 66.3955 75.052V76.676C66.3955 76.8627 66.4468 77.0027 66.5495 77.096C66.6521 77.1893 66.8248 77.236 67.0675 77.236ZM75.7808 79C75.1648 79 74.6888 78.9113 74.3528 78.734C74.0262 78.5567 73.8022 78.314 73.6808 78.006C73.5595 77.6887 73.4988 77.3247 73.4988 76.914V74.8C73.4988 74.4267 73.5595 74.086 73.6808 73.778C73.8115 73.4607 74.0402 73.2087 74.3668 73.022C74.6935 72.826 75.1648 72.728 75.7808 72.728H78.6788C79.4068 72.728 79.9622 72.8167 80.3448 72.994C80.7368 73.162 81.0028 73.4047 81.1428 73.722C81.2922 74.03 81.3668 74.3893 81.3668 74.8V76.592H78.9168C78.0768 76.592 77.4375 76.5733 76.9988 76.536C76.5695 76.4987 76.2662 76.4753 76.0888 76.466V76.676C76.0795 77.0493 76.3035 77.236 76.7608 77.236H77.1948C77.9415 77.236 78.6322 77.222 79.2668 77.194C79.9015 77.1567 80.3728 77.124 80.6808 77.096L81.5208 78.426C81.5208 78.5193 81.4415 78.608 81.2828 78.692C81.1242 78.776 80.8442 78.8507 80.4428 78.916C80.0508 78.972 79.4908 79 78.7628 79H75.7808ZM76.0888 75.248H78.7768V75.052C78.7768 74.8653 78.7582 74.7347 78.7208 74.66C78.6928 74.5853 78.5948 74.5387 78.4268 74.52C78.2588 74.5013 77.9742 74.492 77.5728 74.492H76.7608C76.3128 74.492 76.0888 74.6787 76.0888 75.052V75.248ZM21.9758 95V87.888L21.8358 86.768H25.2238L27.6878 91.668L30.2078 86.768H33.4138V95H30.7398V90.282H30.5858L29.9978 91.794L28.9758 94.16H26.4278L25.3638 91.794L24.7898 90.282H24.6498V95H21.9758ZM37.4641 95C36.6428 95 36.0548 94.846 35.7001 94.538C35.3454 94.23 35.1681 93.7167 35.1681 92.998C35.1681 92.3353 35.3501 91.8547 35.7141 91.556C36.0874 91.2573 36.6708 91.108 37.4641 91.108H37.8981C38.4208 91.108 38.9201 91.1267 39.3961 91.164C39.8721 91.2013 40.2828 91.2387 40.6281 91.276V91.052C40.6281 90.9213 40.6001 90.7953 40.5441 90.674C40.4881 90.5527 40.2921 90.492 39.9561 90.492H39.2561C38.2388 90.492 37.4548 90.5107 36.9041 90.548C36.3534 90.576 36.0128 90.604 35.8821 90.632L35.7281 89.148C35.7281 89.0547 35.8914 88.98 36.2181 88.924C36.5448 88.8587 36.9928 88.812 37.5621 88.784C38.1314 88.7467 38.7801 88.728 39.5081 88.728H40.9081C41.5241 88.728 41.9954 88.8213 42.3221 89.008C42.6488 89.1853 42.8728 89.428 42.9941 89.736C43.1154 90.044 43.1761 90.3987 43.1761 90.8V95H41.1881L40.6421 94.72C40.4181 94.7667 40.0588 94.8273 39.5641 94.902C39.0788 94.9673 38.5188 95 37.8841 95H37.4641ZM38.2761 93.348H40.2081C40.4134 93.348 40.5348 93.3293 40.5721 93.292C40.6094 93.2547 40.6281 93.138 40.6281 92.942V92.452H38.2761C38.0988 92.452 37.9681 92.4847 37.8841 92.55C37.8001 92.6153 37.7581 92.7413 37.7581 92.928C37.7581 93.1053 37.8001 93.222 37.8841 93.278C37.9681 93.3247 38.0988 93.348 38.2761 93.348ZM44.7843 95V88.728H46.7723L47.3043 89.008C47.7337 88.728 48.303 88.588 49.0123 88.588C49.479 88.588 49.8897 88.6393 50.2443 88.742C50.599 88.8353 50.8837 88.938 51.0983 89.05C51.3223 89.162 51.4623 89.2413 51.5183 89.288L50.8183 91.108C50.725 91.0427 50.5477 90.954 50.2863 90.842C50.0343 90.73 49.7357 90.6273 49.3903 90.534C49.045 90.4313 48.681 90.38 48.2983 90.38H48.1443C47.883 90.38 47.6823 90.4267 47.5423 90.52C47.4023 90.604 47.3323 90.7953 47.3323 91.094V95H44.7843ZM59.7613 95.14C59.3039 95.14 58.9026 95.0933 58.5573 95C58.2213 94.9067 57.8993 94.706 57.5913 94.398C57.4046 94.2113 57.2179 94.0247 57.0313 93.838C56.8446 93.6513 56.6579 93.4647 56.4713 93.278C56.3219 93.1193 56.2006 92.998 56.1073 92.914C56.0139 92.8207 55.9206 92.76 55.8273 92.732C55.7433 92.6947 55.6219 92.676 55.4633 92.676C55.2579 92.676 55.1366 92.6947 55.0993 92.732C55.0619 92.7693 55.0433 92.8953 55.0433 93.11V95H52.4953V86.138H55.0433V90.884H55.4913C55.6499 90.884 55.7993 90.8187 55.9393 90.688C56.0233 90.604 56.1493 90.45 56.3173 90.226C56.4946 90.002 56.6859 89.7547 56.8913 89.484C57.0966 89.2133 57.2833 88.966 57.4513 88.742H60.3913L60.1673 89.176C59.9433 89.456 59.6819 89.764 59.3833 90.1C59.0939 90.436 58.8093 90.744 58.5293 91.024C58.2586 91.304 58.0393 91.5 57.8713 91.612C58.2353 91.8547 58.5759 92.116 58.8933 92.396C59.2106 92.6667 59.6166 92.9093 60.1113 93.124C60.4379 93.264 60.7133 93.3573 60.9373 93.404C61.1706 93.4413 61.3339 93.46 61.4273 93.46L61.0353 95C60.9419 95.028 60.7833 95.056 60.5593 95.084C60.3446 95.1213 60.0786 95.14 59.7613 95.14ZM64.4127 95C63.7967 95 63.3207 94.9113 62.9847 94.734C62.658 94.5567 62.434 94.314 62.3127 94.006C62.1913 93.6887 62.1307 93.3247 62.1307 92.914V90.8C62.1307 90.4267 62.1913 90.086 62.3127 89.778C62.4433 89.4607 62.672 89.2087 62.9987 89.022C63.3253 88.826 63.7967 88.728 64.4127 88.728H67.3107C68.0387 88.728 68.594 88.8167 68.9767 88.994C69.3687 89.162 69.6347 89.4047 69.7747 89.722C69.924 90.03 69.9987 90.3893 69.9987 90.8V92.592H67.5487C66.7087 92.592 66.0693 92.5733 65.6307 92.536C65.2013 92.4987 64.898 92.4753 64.7207 92.466V92.676C64.7113 93.0493 64.9353 93.236 65.3927 93.236H65.8267C66.5733 93.236 67.264 93.222 67.8987 93.194C68.5333 93.1567 69.0047 93.124 69.3127 93.096L70.1527 94.426C70.1527 94.5193 70.0733 94.608 69.9147 94.692C69.756 94.776 69.476 94.8507 69.0747 94.916C68.6827 94.972 68.1227 95 67.3947 95H64.4127ZM64.7207 91.248H67.4087V91.052C67.4087 90.8653 67.39 90.7347 67.3527 90.66C67.3247 90.5853 67.2267 90.5387 67.0587 90.52C66.8907 90.5013 66.606 90.492 66.2047 90.492H65.3927C64.9447 90.492 64.7207 90.6787 64.7207 91.052V91.248ZM73.9899 95C73.2805 95 72.7952 94.8507 72.5339 94.552C72.2725 94.2533 72.1419 93.8053 72.1419 93.208V90.492H70.9939V88.728H71.5819C71.7405 88.728 71.8665 88.7 71.9599 88.644C72.0625 88.5787 72.1279 88.4667 72.1559 88.308L72.4219 86.81H74.7179V88.728H77.0559V90.492H74.7179V92.662C74.7179 92.8953 74.7739 93.0493 74.8859 93.124C74.9979 93.1987 75.1659 93.236 75.3899 93.236H76.7899L77.0699 94.86C76.8739 94.888 76.5752 94.9207 76.1739 94.958C75.7725 94.986 75.3339 95 74.8579 95H73.9899ZM79.5987 88.126C78.6561 88.126 78.1847 87.7247 78.1847 86.922C78.1847 86.474 78.3014 86.166 78.5347 85.998C78.7774 85.8207 79.1321 85.732 79.5987 85.732C80.0934 85.732 80.4527 85.8207 80.6767 85.998C80.9101 86.166 81.0267 86.474 81.0267 86.922C81.0267 87.7247 80.5507 88.126 79.5987 88.126ZM78.3107 95V88.728H80.8587V95H78.3107ZM82.7101 95V88.728H84.7401L85.3001 89.008C85.6921 88.9333 86.1635 88.868 86.7141 88.812C87.2741 88.756 87.7968 88.728 88.2821 88.728H88.9821C89.4488 88.728 89.8081 88.7933 90.0601 88.924C90.3121 89.0547 90.4895 89.218 90.5921 89.414C90.7041 89.61 90.7695 89.8107 90.7881 90.016C90.8161 90.212 90.8301 90.38 90.8301 90.52V95H88.2681V91.052C88.2681 90.6787 88.0441 90.492 87.5961 90.492H85.7201C85.5428 90.492 85.4261 90.5107 85.3701 90.548C85.3235 90.576 85.3001 90.66 85.3001 90.8V95H82.7101ZM96.7705 97.464C95.8092 97.464 95.0252 97.4453 94.4185 97.408C93.8118 97.38 93.3452 97.338 93.0185 97.282C92.6918 97.226 92.4678 97.1607 92.3465 97.086C92.2252 97.0207 92.1645 96.9553 92.1645 96.89L92.8645 95.42C92.9672 95.448 93.1958 95.4993 93.5505 95.574C93.9052 95.658 94.4232 95.7 95.1045 95.7H97.2185C97.4612 95.7 97.6338 95.658 97.7365 95.574C97.8485 95.49 97.8998 95.3453 97.8905 95.14V94.566C97.6012 94.65 97.1952 94.72 96.6725 94.776C96.1592 94.8227 95.5572 94.846 94.8665 94.846H94.4605C93.8445 94.846 93.3825 94.762 93.0745 94.594C92.7758 94.4167 92.5752 94.174 92.4725 93.866C92.3792 93.558 92.3325 93.1893 92.3325 92.76V90.8C92.3325 90.576 92.3558 90.3427 92.4025 90.1C92.4585 89.8573 92.5565 89.6333 92.6965 89.428C92.8458 89.2227 93.0605 89.0547 93.3405 88.924C93.6298 88.7933 94.0032 88.728 94.4605 88.728H94.8805C95.5338 88.728 96.0658 88.7373 96.4765 88.756C96.8872 88.7747 97.2138 88.798 97.4565 88.826C97.7085 88.854 97.9185 88.882 98.0865 88.91L98.4505 88.728H100.438V95.392C100.438 96.008 100.242 96.5073 99.8505 96.89C99.4585 97.2727 98.8052 97.464 97.8905 97.464H96.7705ZM95.5945 93.082H97.4565C97.6712 93.082 97.7972 93.0633 97.8345 93.026C97.8718 92.9887 97.8905 92.8673 97.8905 92.662V90.59C97.6852 90.5713 97.4845 90.5573 97.2885 90.548C97.1018 90.5293 96.8872 90.5153 96.6445 90.506C96.4112 90.4967 96.1125 90.492 95.7485 90.492H95.5945C95.1465 90.492 94.9225 90.6787 94.9225 91.052V92.522C94.9132 92.8953 95.1372 93.082 95.5945 93.082ZM36.5983 111L40.7003 102.768H44.3403L48.4283 111H45.4183L44.7323 109.502H40.3083L39.5383 111H36.5983ZM41.0783 107.57H43.9483L42.5903 104.588H42.4503L41.0783 107.57ZM51.3729 111C50.7569 111 50.2949 110.911 49.9869 110.734C49.6883 110.547 49.4876 110.3 49.3849 109.992C49.2916 109.675 49.2449 109.315 49.2449 108.914V106.8C49.2449 106.445 49.2916 106.114 49.3849 105.806C49.4876 105.489 49.6883 105.232 49.9869 105.036C50.2949 104.831 50.7569 104.728 51.3729 104.728H51.8069C52.4883 104.728 53.1043 104.747 53.6549 104.784C54.2149 104.821 54.5976 104.854 54.8029 104.882V102.124H57.3929V111H55.3629L54.8169 110.72C54.4249 110.785 54.0003 110.851 53.5429 110.916C53.0949 110.972 52.5116 111 51.7929 111H51.3729ZM52.5069 109.236H54.3689C54.5649 109.236 54.6863 109.213 54.7329 109.166C54.7796 109.119 54.8029 109.003 54.8029 108.816V106.59C54.5696 106.571 54.2943 106.553 53.9769 106.534C53.6596 106.506 53.3096 106.492 52.9269 106.492H52.5069C52.0589 106.492 51.8349 106.679 51.8349 107.052V108.676C51.8349 108.863 51.8863 109.003 51.9889 109.096C52.0916 109.189 52.2643 109.236 52.5069 109.236ZM59.0783 111V104.728H61.1083L61.4583 104.896C61.7289 104.849 62.0323 104.812 62.3683 104.784C62.7136 104.747 63.0823 104.728 63.4743 104.728H64.2303C64.5009 104.728 64.7623 104.765 65.0143 104.84C65.2663 104.905 65.4529 105.003 65.5743 105.134C65.7329 105.05 65.9056 104.98 66.0923 104.924C66.2789 104.859 66.5169 104.812 66.8063 104.784C67.1049 104.747 67.4829 104.728 67.9403 104.728H68.6403C69.1069 104.728 69.4663 104.793 69.7183 104.924C69.9703 105.055 70.1476 105.218 70.2503 105.414C70.3623 105.61 70.4276 105.811 70.4463 106.016C70.4743 106.212 70.4883 106.38 70.4883 106.52V111H67.9263V107.052C67.9263 106.679 67.7023 106.492 67.2543 106.492H66.4703C66.3209 106.492 66.2183 106.511 66.1623 106.548C66.1063 106.585 66.0783 106.669 66.0783 106.8V111H63.4743V107.052C63.4743 106.679 63.2503 106.492 62.8023 106.492H62.0883C61.9109 106.492 61.7943 106.511 61.7383 106.548C61.6916 106.576 61.6683 106.66 61.6683 106.8V111H59.0783ZM73.5079 104.126C72.5652 104.126 72.0939 103.725 72.0939 102.922C72.0939 102.474 72.2106 102.166 72.4439 101.998C72.6866 101.821 73.0412 101.732 73.5079 101.732C74.0026 101.732 74.3619 101.821 74.5859 101.998C74.8192 102.166 74.9359 102.474 74.9359 102.922C74.9359 103.725 74.4599 104.126 73.5079 104.126ZM72.2199 111V104.728H74.7679V111H72.2199ZM76.6193 111V104.728H78.6493L79.2093 105.008C79.6013 104.933 80.0726 104.868 80.6233 104.812C81.1833 104.756 81.706 104.728 82.1913 104.728H82.8913C83.358 104.728 83.7173 104.793 83.9693 104.924C84.2213 105.055 84.3986 105.218 84.5013 105.414C84.6133 105.61 84.6786 105.811 84.6973 106.016C84.7253 106.212 84.7393 106.38 84.7393 106.52V111H82.1773V107.052C82.1773 106.679 81.9533 106.492 81.5053 106.492H79.6293C79.452 106.492 79.3353 106.511 79.2793 106.548C79.2326 106.576 79.2093 106.66 79.2093 106.8V111H76.6193Z" fill="white"/>
</g>
<defs>
<clipPath id="clip0_594_5843">
<rect width="122" height="143" rx="5" fill="white"/>
</clipPath>
</defs>
</svg>
