<svg width="122" height="143" viewBox="0 0 122 143" fill="none" xmlns="http://www.w3.org/2000/svg">
<g clip-path="url(#clip0_594_5813)">
<rect width="122" height="143" rx="5" fill="#325A6D"/>
<rect width="62.2827" height="140.542" transform="translate(48.4727 -0.260742) rotate(-40.2749)" fill="white" fill-opacity="0.1"/>
<rect width="24.3562" height="48.0719" transform="translate(-19 123.745) rotate(-40.2749)" fill="white" fill-opacity="0.1"/>
<path fill-rule="evenodd" clip-rule="evenodd" d="M61.0001 39.6667C57.9919 39.6667 55.5455 42.0587 55.5455 45C55.5455 47.9413 57.9919 50.3333 61.0001 50.3333C64.0082 50.3333 66.4546 47.9413 66.4546 45C66.4546 42.0587 64.0082 39.6667 61.0001 39.6667ZM61.0001 53C56.4878 53 52.8182 49.412 52.8182 45C52.8182 40.588 56.4878 37 61.0001 37C65.5123 37 69.1819 40.588 69.1819 45C69.1819 49.412 65.5123 53 61.0001 53Z" fill="#F5E003"/>
<path fill-rule="evenodd" clip-rule="evenodd" d="M62.6655 49.2039C62.4105 49.0799 62.251 48.8266 62.251 48.5479V47.7932C62.3055 47.7319 62.3696 47.6532 62.4365 47.5599C62.7051 47.1892 62.9083 46.7826 63.0474 46.3546C63.301 46.2799 63.4864 46.0519 63.4864 45.7812V44.9759C63.4864 44.7986 63.406 44.6399 63.2805 44.5292V43.3652C63.2805 43.3652 63.5246 41.5532 61.0155 41.5532C58.5064 41.5532 58.7505 43.3652 58.7505 43.3652V44.5292C58.6251 44.6399 58.546 44.7986 58.546 44.9759V45.7812C58.546 45.9932 58.6592 46.1786 58.8296 46.2866C59.0355 47.1639 59.5742 47.7932 59.5742 47.7932V48.5292C59.5742 48.7972 59.4242 49.0452 59.1828 49.1732L57.3474 50.1532C57.2219 50.2199 57.1101 50.3039 57.0078 50.3972C58.1314 51.1919 59.5074 51.6666 60.9992 51.6666C62.4896 51.6666 63.8642 51.1946 64.9851 50.4012C64.8801 50.3092 64.7614 50.2292 64.6319 50.1652L62.6655 49.2039Z" fill="#F5E003"/>
<path fill-rule="evenodd" clip-rule="evenodd" d="M61.0004 59.6667C60.2463 59.6667 59.6367 59.0693 59.6367 58.3333V50.3333C59.6367 49.5973 60.2463 49 61.0004 49C61.7544 49 62.364 49.5973 62.364 50.3333V58.3333C62.364 59.0693 61.7544 59.6667 61.0004 59.6667Z" fill="#F5E003"/>
<path fill-rule="evenodd" clip-rule="evenodd" d="M50.0912 59.6668C49.3371 59.6668 48.7275 59.0695 48.7275 58.3335V55.6668C48.7275 54.9308 49.3371 54.3335 50.0912 54.3335H61.0003C61.7544 54.3335 62.3639 54.9308 62.3639 55.6668C62.3639 56.4028 61.7544 57.0002 61.0003 57.0002H51.4548V58.3335C51.4548 59.0695 50.8453 59.6668 50.0912 59.6668Z" fill="#F5E003"/>
<path fill-rule="evenodd" clip-rule="evenodd" d="M71.9094 59.6668C71.1554 59.6668 70.5458 59.0695 70.5458 58.3335V57.0002H61.0004C60.2463 57.0002 59.6367 56.4028 59.6367 55.6668C59.6367 54.9308 60.2463 54.3335 61.0004 54.3335H71.9094C72.6635 54.3335 73.2731 54.9308 73.2731 55.6668V58.3335C73.2731 59.0695 72.6635 59.6668 71.9094 59.6668Z" fill="#F5E003"/>
<path fill-rule="evenodd" clip-rule="evenodd" d="M50.0909 63.6667C49.3382 63.6667 48.7273 64.2653 48.7273 65C48.7273 65.7347 49.3382 66.3333 50.0909 66.3333C50.8436 66.3333 51.4545 65.7347 51.4545 65C51.4545 64.2653 50.8436 63.6667 50.0909 63.6667ZM50.0909 69C47.8355 69 46 67.2053 46 65C46 62.7947 47.8355 61 50.0909 61C52.3464 61 54.1818 62.7947 54.1818 65C54.1818 67.2053 52.3464 69 50.0909 69Z" fill="#F5E003"/>
<path fill-rule="evenodd" clip-rule="evenodd" d="M61.0001 63.6667C60.2474 63.6667 59.6365 64.2653 59.6365 65C59.6365 65.7347 60.2474 66.3333 61.0001 66.3333C61.7528 66.3333 62.3637 65.7347 62.3637 65C62.3637 64.2653 61.7528 63.6667 61.0001 63.6667ZM61.0001 69C58.7446 69 56.9092 67.2053 56.9092 65C56.9092 62.7947 58.7446 61 61.0001 61C63.2555 61 65.091 62.7947 65.091 65C65.091 67.2053 63.2555 69 61.0001 69Z" fill="#F5E003"/>
<path fill-rule="evenodd" clip-rule="evenodd" d="M71.9093 63.6667C71.1565 63.6667 70.5456 64.2653 70.5456 65C70.5456 65.7347 71.1565 66.3333 71.9093 66.3333C72.662 66.3333 73.2729 65.7347 73.2729 65C73.2729 64.2653 72.662 63.6667 71.9093 63.6667ZM71.9093 69C69.6538 69 67.8184 67.2053 67.8184 65C67.8184 62.7947 69.6538 61 71.9093 61C74.1647 61 76.0002 62.7947 76.0002 65C76.0002 67.2053 74.1647 69 71.9093 69Z" fill="#F5E003"/>
<path d="M41.9919 96V89.658H38.6599V87.754H48.0819V89.658H44.7079V96H41.9919ZM48.9269 96V89.728H50.9149L51.4469 90.008C51.8762 89.728 52.4456 89.588 53.1549 89.588C53.6216 89.588 54.0322 89.6393 54.3869 89.742C54.7416 89.8353 55.0262 89.938 55.2409 90.05C55.4649 90.162 55.6049 90.2413 55.6609 90.288L54.9609 92.108C54.8676 92.0427 54.6902 91.954 54.4289 91.842C54.1769 91.73 53.8782 91.6273 53.5329 91.534C53.1876 91.4313 52.8236 91.38 52.4409 91.38H52.2869C52.0256 91.38 51.8249 91.4267 51.6849 91.52C51.5449 91.604 51.4749 91.7953 51.4749 92.094V96H48.9269ZM58.1633 96C57.342 96 56.754 95.846 56.3993 95.538C56.0446 95.23 55.8673 94.7167 55.8673 93.998C55.8673 93.3353 56.0493 92.8547 56.4133 92.556C56.7866 92.2573 57.37 92.108 58.1633 92.108H58.5973C59.12 92.108 59.6193 92.1267 60.0953 92.164C60.5713 92.2013 60.982 92.2387 61.3273 92.276V92.052C61.3273 91.9213 61.2993 91.7953 61.2433 91.674C61.1873 91.5527 60.9913 91.492 60.6553 91.492H59.9553C58.938 91.492 58.154 91.5107 57.6033 91.548C57.0526 91.576 56.712 91.604 56.5813 91.632L56.4273 90.148C56.4273 90.0547 56.5906 89.98 56.9173 89.924C57.244 89.8587 57.692 89.812 58.2613 89.784C58.8306 89.7467 59.4793 89.728 60.2073 89.728H61.6073C62.2233 89.728 62.6946 89.8213 63.0213 90.008C63.348 90.1853 63.572 90.428 63.6933 90.736C63.8146 91.044 63.8753 91.3987 63.8753 91.8V96H61.8873L61.3413 95.72C61.1173 95.7667 60.758 95.8273 60.2633 95.902C59.778 95.9673 59.218 96 58.5833 96H58.1633ZM58.9753 94.348H60.9073C61.1126 94.348 61.234 94.3293 61.2713 94.292C61.3086 94.2547 61.3273 94.138 61.3273 93.942V93.452H58.9753C58.798 93.452 58.6673 93.4847 58.5833 93.55C58.4993 93.6153 58.4573 93.7413 58.4573 93.928C58.4573 94.1053 58.4993 94.222 58.5833 94.278C58.6673 94.3247 58.798 94.348 58.9753 94.348ZM67.4716 96C66.8556 96 66.3936 95.9113 66.0856 95.734C65.7869 95.5473 65.5862 95.3 65.4836 94.992C65.3902 94.6747 65.3436 94.3153 65.3436 93.914V91.8C65.3436 91.4453 65.3902 91.114 65.4836 90.806C65.5862 90.4887 65.7869 90.232 66.0856 90.036C66.3936 89.8307 66.8556 89.728 67.4716 89.728H67.9056C68.5869 89.728 69.2029 89.7467 69.7536 89.784C70.3136 89.8213 70.6962 89.854 70.9016 89.882V87.124H73.4916V96H71.4616L70.9156 95.72C70.5236 95.7853 70.0989 95.8507 69.6416 95.916C69.1936 95.972 68.6102 96 67.8916 96H67.4716ZM68.6056 94.236H70.4676C70.6636 94.236 70.7849 94.2127 70.8316 94.166C70.8782 94.1193 70.9016 94.0027 70.9016 93.816V91.59C70.6682 91.5713 70.3929 91.5527 70.0756 91.534C69.7582 91.506 69.4082 91.492 69.0256 91.492H68.6056C68.1576 91.492 67.9336 91.6787 67.9336 92.052V93.676C67.9336 93.8627 67.9849 94.0027 68.0876 94.096C68.1902 94.1893 68.3629 94.236 68.6056 94.236ZM77.3189 96C76.7029 96 76.2269 95.9113 75.8909 95.734C75.5642 95.5567 75.3402 95.314 75.2189 95.006C75.0976 94.6887 75.0369 94.3247 75.0369 93.914V91.8C75.0369 91.4267 75.0976 91.086 75.2189 90.778C75.3496 90.4607 75.5782 90.2087 75.9049 90.022C76.2316 89.826 76.7029 89.728 77.3189 89.728H80.2169C80.9449 89.728 81.5002 89.8167 81.8829 89.994C82.2749 90.162 82.5409 90.4047 82.6809 90.722C82.8302 91.03 82.9049 91.3893 82.9049 91.8V93.592H80.4549C79.6149 93.592 78.9756 93.5733 78.5369 93.536C78.1076 93.4987 77.8042 93.4753 77.6269 93.466V93.676C77.6176 94.0493 77.8416 94.236 78.2989 94.236H78.7329C79.4796 94.236 80.1702 94.222 80.8049 94.194C81.4396 94.1567 81.9109 94.124 82.2189 94.096L83.0589 95.426C83.0589 95.5193 82.9796 95.608 82.8209 95.692C82.6622 95.776 82.3822 95.8507 81.9809 95.916C81.5889 95.972 81.0289 96 80.3009 96H77.3189ZM77.6269 92.248H80.3149V92.052C80.3149 91.8653 80.2962 91.7347 80.2589 91.66C80.2309 91.5853 80.1329 91.5387 79.9649 91.52C79.7969 91.5013 79.5122 91.492 79.1109 91.492H78.2989C77.8509 91.492 77.6269 91.6787 77.6269 92.052V92.248ZM21.9758 110V102.888L21.8358 101.768H25.2238L27.6878 106.668L30.2078 101.768H33.4138V110H30.7398V105.282H30.5858L29.9978 106.794L28.9758 109.16H26.4278L25.3638 106.794L24.7898 105.282H24.6498V110H21.9758ZM37.4641 110C36.6428 110 36.0548 109.846 35.7001 109.538C35.3454 109.23 35.1681 108.717 35.1681 107.998C35.1681 107.335 35.3501 106.855 35.7141 106.556C36.0874 106.257 36.6708 106.108 37.4641 106.108H37.8981C38.4208 106.108 38.9201 106.127 39.3961 106.164C39.8721 106.201 40.2828 106.239 40.6281 106.276V106.052C40.6281 105.921 40.6001 105.795 40.5441 105.674C40.4881 105.553 40.2921 105.492 39.9561 105.492H39.2561C38.2388 105.492 37.4548 105.511 36.9041 105.548C36.3534 105.576 36.0128 105.604 35.8821 105.632L35.7281 104.148C35.7281 104.055 35.8914 103.98 36.2181 103.924C36.5448 103.859 36.9928 103.812 37.5621 103.784C38.1314 103.747 38.7801 103.728 39.5081 103.728H40.9081C41.5241 103.728 41.9954 103.821 42.3221 104.008C42.6488 104.185 42.8728 104.428 42.9941 104.736C43.1154 105.044 43.1761 105.399 43.1761 105.8V110H41.1881L40.6421 109.72C40.4181 109.767 40.0588 109.827 39.5641 109.902C39.0788 109.967 38.5188 110 37.8841 110H37.4641ZM38.2761 108.348H40.2081C40.4134 108.348 40.5348 108.329 40.5721 108.292C40.6094 108.255 40.6281 108.138 40.6281 107.942V107.452H38.2761C38.0988 107.452 37.9681 107.485 37.8841 107.55C37.8001 107.615 37.7581 107.741 37.7581 107.928C37.7581 108.105 37.8001 108.222 37.8841 108.278C37.9681 108.325 38.0988 108.348 38.2761 108.348ZM44.7843 110V103.728H46.7723L47.3043 104.008C47.7337 103.728 48.303 103.588 49.0123 103.588C49.479 103.588 49.8897 103.639 50.2443 103.742C50.599 103.835 50.8837 103.938 51.0983 104.05C51.3223 104.162 51.4623 104.241 51.5183 104.288L50.8183 106.108C50.725 106.043 50.5477 105.954 50.2863 105.842C50.0343 105.73 49.7357 105.627 49.3903 105.534C49.045 105.431 48.681 105.38 48.2983 105.38H48.1443C47.883 105.38 47.6823 105.427 47.5423 105.52C47.4023 105.604 47.3323 105.795 47.3323 106.094V110H44.7843ZM59.7613 110.14C59.3039 110.14 58.9026 110.093 58.5573 110C58.2213 109.907 57.8993 109.706 57.5913 109.398C57.4046 109.211 57.2179 109.025 57.0313 108.838C56.8446 108.651 56.6579 108.465 56.4713 108.278C56.3219 108.119 56.2006 107.998 56.1073 107.914C56.0139 107.821 55.9206 107.76 55.8273 107.732C55.7433 107.695 55.6219 107.676 55.4633 107.676C55.2579 107.676 55.1366 107.695 55.0993 107.732C55.0619 107.769 55.0433 107.895 55.0433 108.11V110H52.4953V101.138H55.0433V105.884H55.4913C55.6499 105.884 55.7993 105.819 55.9393 105.688C56.0233 105.604 56.1493 105.45 56.3173 105.226C56.4946 105.002 56.6859 104.755 56.8913 104.484C57.0966 104.213 57.2833 103.966 57.4513 103.742H60.3913L60.1673 104.176C59.9433 104.456 59.6819 104.764 59.3833 105.1C59.0939 105.436 58.8093 105.744 58.5293 106.024C58.2586 106.304 58.0393 106.5 57.8713 106.612C58.2353 106.855 58.5759 107.116 58.8933 107.396C59.2106 107.667 59.6166 107.909 60.1113 108.124C60.4379 108.264 60.7133 108.357 60.9373 108.404C61.1706 108.441 61.3339 108.46 61.4273 108.46L61.0353 110C60.9419 110.028 60.7833 110.056 60.5593 110.084C60.3446 110.121 60.0786 110.14 59.7613 110.14ZM64.4127 110C63.7967 110 63.3207 109.911 62.9847 109.734C62.658 109.557 62.434 109.314 62.3127 109.006C62.1913 108.689 62.1307 108.325 62.1307 107.914V105.8C62.1307 105.427 62.1913 105.086 62.3127 104.778C62.4433 104.461 62.672 104.209 62.9987 104.022C63.3253 103.826 63.7967 103.728 64.4127 103.728H67.3107C68.0387 103.728 68.594 103.817 68.9767 103.994C69.3687 104.162 69.6347 104.405 69.7747 104.722C69.924 105.03 69.9987 105.389 69.9987 105.8V107.592H67.5487C66.7087 107.592 66.0693 107.573 65.6307 107.536C65.2013 107.499 64.898 107.475 64.7207 107.466V107.676C64.7113 108.049 64.9353 108.236 65.3927 108.236H65.8267C66.5733 108.236 67.264 108.222 67.8987 108.194C68.5333 108.157 69.0047 108.124 69.3127 108.096L70.1527 109.426C70.1527 109.519 70.0733 109.608 69.9147 109.692C69.756 109.776 69.476 109.851 69.0747 109.916C68.6827 109.972 68.1227 110 67.3947 110H64.4127ZM64.7207 106.248H67.4087V106.052C67.4087 105.865 67.39 105.735 67.3527 105.66C67.3247 105.585 67.2267 105.539 67.0587 105.52C66.8907 105.501 66.606 105.492 66.2047 105.492H65.3927C64.9447 105.492 64.7207 105.679 64.7207 106.052V106.248ZM73.9899 110C73.2805 110 72.7952 109.851 72.5339 109.552C72.2725 109.253 72.1419 108.805 72.1419 108.208V105.492H70.9939V103.728H71.5819C71.7405 103.728 71.8665 103.7 71.9599 103.644C72.0625 103.579 72.1279 103.467 72.1559 103.308L72.4219 101.81H74.7179V103.728H77.0559V105.492H74.7179V107.662C74.7179 107.895 74.7739 108.049 74.8859 108.124C74.9979 108.199 75.1659 108.236 75.3899 108.236H76.7899L77.0699 109.86C76.8739 109.888 76.5752 109.921 76.1739 109.958C75.7725 109.986 75.3339 110 74.8579 110H73.9899ZM79.5987 103.126C78.6561 103.126 78.1847 102.725 78.1847 101.922C78.1847 101.474 78.3014 101.166 78.5347 100.998C78.7774 100.821 79.1321 100.732 79.5987 100.732C80.0934 100.732 80.4527 100.821 80.6767 100.998C80.9101 101.166 81.0267 101.474 81.0267 101.922C81.0267 102.725 80.5507 103.126 79.5987 103.126ZM78.3107 110V103.728H80.8587V110H78.3107ZM82.7101 110V103.728H84.7401L85.3001 104.008C85.6921 103.933 86.1635 103.868 86.7141 103.812C87.2741 103.756 87.7968 103.728 88.2821 103.728H88.9821C89.4488 103.728 89.8081 103.793 90.0601 103.924C90.3121 104.055 90.4895 104.218 90.5921 104.414C90.7041 104.61 90.7695 104.811 90.7881 105.016C90.8161 105.212 90.8301 105.38 90.8301 105.52V110H88.2681V106.052C88.2681 105.679 88.0441 105.492 87.5961 105.492H85.7201C85.5428 105.492 85.4261 105.511 85.3701 105.548C85.3235 105.576 85.3001 105.66 85.3001 105.8V110H82.7101ZM96.7705 112.464C95.8092 112.464 95.0252 112.445 94.4185 112.408C93.8118 112.38 93.3452 112.338 93.0185 112.282C92.6918 112.226 92.4678 112.161 92.3465 112.086C92.2252 112.021 92.1645 111.955 92.1645 111.89L92.8645 110.42C92.9672 110.448 93.1958 110.499 93.5505 110.574C93.9052 110.658 94.4232 110.7 95.1045 110.7H97.2185C97.4612 110.7 97.6338 110.658 97.7365 110.574C97.8485 110.49 97.8998 110.345 97.8905 110.14V109.566C97.6012 109.65 97.1952 109.72 96.6725 109.776C96.1592 109.823 95.5572 109.846 94.8665 109.846H94.4605C93.8445 109.846 93.3825 109.762 93.0745 109.594C92.7758 109.417 92.5752 109.174 92.4725 108.866C92.3792 108.558 92.3325 108.189 92.3325 107.76V105.8C92.3325 105.576 92.3558 105.343 92.4025 105.1C92.4585 104.857 92.5565 104.633 92.6965 104.428C92.8458 104.223 93.0605 104.055 93.3405 103.924C93.6298 103.793 94.0032 103.728 94.4605 103.728H94.8805C95.5338 103.728 96.0658 103.737 96.4765 103.756C96.8872 103.775 97.2138 103.798 97.4565 103.826C97.7085 103.854 97.9185 103.882 98.0865 103.91L98.4505 103.728H100.438V110.392C100.438 111.008 100.242 111.507 99.8505 111.89C99.4585 112.273 98.8052 112.464 97.8905 112.464H96.7705ZM95.5945 108.082H97.4565C97.6712 108.082 97.7972 108.063 97.8345 108.026C97.8718 107.989 97.8905 107.867 97.8905 107.662V105.59C97.6852 105.571 97.4845 105.557 97.2885 105.548C97.1018 105.529 96.8872 105.515 96.6445 105.506C96.4112 105.497 96.1125 105.492 95.7485 105.492H95.5945C95.1465 105.492 94.9225 105.679 94.9225 106.052V107.522C94.9132 107.895 95.1372 108.082 95.5945 108.082ZM27.7385 124V116.888L27.5985 115.768H30.9865L33.4505 120.668L35.9705 115.768H39.1765V124H36.5025V119.282H36.3485L35.7605 120.794L34.7385 123.16H32.1905L31.1265 120.794L30.5525 119.282H30.4125V124H27.7385ZM43.2268 124C42.4054 124 41.8174 123.846 41.4628 123.538C41.1081 123.23 40.9308 122.717 40.9308 121.998C40.9308 121.335 41.1128 120.855 41.4768 120.556C41.8501 120.257 42.4334 120.108 43.2268 120.108H43.6608C44.1834 120.108 44.6828 120.127 45.1588 120.164C45.6348 120.201 46.0454 120.239 46.3908 120.276V120.052C46.3908 119.921 46.3628 119.795 46.3068 119.674C46.2508 119.553 46.0548 119.492 45.7188 119.492H45.0188C44.0014 119.492 43.2174 119.511 42.6668 119.548C42.1161 119.576 41.7754 119.604 41.6448 119.632L41.4908 118.148C41.4908 118.055 41.6541 117.98 41.9808 117.924C42.3074 117.859 42.7554 117.812 43.3248 117.784C43.8941 117.747 44.5428 117.728 45.2708 117.728H46.6708C47.2868 117.728 47.7581 117.821 48.0848 118.008C48.4114 118.185 48.6354 118.428 48.7568 118.736C48.8781 119.044 48.9388 119.399 48.9388 119.8V124H46.9508L46.4048 123.72C46.1808 123.767 45.8214 123.827 45.3268 123.902C44.8414 123.967 44.2814 124 43.6468 124H43.2268ZM44.0388 122.348H45.9708C46.1761 122.348 46.2974 122.329 46.3348 122.292C46.3721 122.255 46.3908 122.138 46.3908 121.942V121.452H44.0388C43.8614 121.452 43.7308 121.485 43.6468 121.55C43.5628 121.615 43.5208 121.741 43.5208 121.928C43.5208 122.105 43.5628 122.222 43.6468 122.278C43.7308 122.325 43.8614 122.348 44.0388 122.348ZM50.547 124V117.728H52.577L53.137 118.008C53.529 117.933 54.0004 117.868 54.551 117.812C55.111 117.756 55.6337 117.728 56.119 117.728H56.819C57.2857 117.728 57.645 117.793 57.897 117.924C58.149 118.055 58.3264 118.218 58.429 118.414C58.541 118.61 58.6064 118.811 58.625 119.016C58.653 119.212 58.667 119.38 58.667 119.52V124H56.105V120.052C56.105 119.679 55.881 119.492 55.433 119.492H53.557C53.3797 119.492 53.263 119.511 53.207 119.548C53.1604 119.576 53.137 119.66 53.137 119.8V124H50.547ZM62.3674 124C61.5461 124 60.9581 123.846 60.6034 123.538C60.2487 123.23 60.0714 122.717 60.0714 121.998C60.0714 121.335 60.2534 120.855 60.6174 120.556C60.9907 120.257 61.5741 120.108 62.3674 120.108H62.8014C63.3241 120.108 63.8234 120.127 64.2994 120.164C64.7754 120.201 65.1861 120.239 65.5314 120.276V120.052C65.5314 119.921 65.5034 119.795 65.4474 119.674C65.3914 119.553 65.1954 119.492 64.8594 119.492H64.1594C63.1421 119.492 62.3581 119.511 61.8074 119.548C61.2567 119.576 60.9161 119.604 60.7854 119.632L60.6314 118.148C60.6314 118.055 60.7947 117.98 61.1214 117.924C61.4481 117.859 61.8961 117.812 62.4654 117.784C63.0347 117.747 63.6834 117.728 64.4114 117.728H65.8114C66.4274 117.728 66.8987 117.821 67.2254 118.008C67.5521 118.185 67.7761 118.428 67.8974 118.736C68.0187 119.044 68.0794 119.399 68.0794 119.8V124H66.0914L65.5454 123.72C65.3214 123.767 64.9621 123.827 64.4674 123.902C63.9821 123.967 63.4221 124 62.7874 124H62.3674ZM63.1794 122.348H65.1114C65.3167 122.348 65.4381 122.329 65.4754 122.292C65.5127 122.255 65.5314 122.138 65.5314 121.942V121.452H63.1794C63.0021 121.452 62.8714 121.485 62.7874 121.55C62.7034 121.615 62.6614 121.741 62.6614 121.928C62.6614 122.105 62.7034 122.222 62.7874 122.278C62.8714 122.325 63.0021 122.348 63.1794 122.348ZM74.0137 126.464C73.0523 126.464 72.2683 126.445 71.6617 126.408C71.055 126.38 70.5883 126.338 70.2617 126.282C69.935 126.226 69.711 126.161 69.5897 126.086C69.4683 126.021 69.4077 125.955 69.4077 125.89L70.1077 124.42C70.2103 124.448 70.439 124.499 70.7937 124.574C71.1483 124.658 71.6663 124.7 72.3477 124.7H74.4617C74.7043 124.7 74.877 124.658 74.9797 124.574C75.0917 124.49 75.143 124.345 75.1337 124.14V123.566C74.8443 123.65 74.4383 123.72 73.9157 123.776C73.4023 123.823 72.8003 123.846 72.1097 123.846H71.7037C71.0877 123.846 70.6257 123.762 70.3177 123.594C70.019 123.417 69.8183 123.174 69.7157 122.866C69.6223 122.558 69.5757 122.189 69.5757 121.76V119.8C69.5757 119.576 69.599 119.343 69.6457 119.1C69.7017 118.857 69.7997 118.633 69.9397 118.428C70.089 118.223 70.3037 118.055 70.5837 117.924C70.873 117.793 71.2463 117.728 71.7037 117.728H72.1237C72.777 117.728 73.309 117.737 73.7197 117.756C74.1303 117.775 74.457 117.798 74.6997 117.826C74.9517 117.854 75.1617 117.882 75.3297 117.91L75.6937 117.728H77.6817V124.392C77.6817 125.008 77.4857 125.507 77.0937 125.89C76.7017 126.273 76.0483 126.464 75.1337 126.464H74.0137ZM72.8377 122.082H74.6997C74.9143 122.082 75.0403 122.063 75.0777 122.026C75.115 121.989 75.1337 121.867 75.1337 121.662V119.59C74.9283 119.571 74.7277 119.557 74.5317 119.548C74.345 119.529 74.1303 119.515 73.8877 119.506C73.6543 119.497 73.3557 119.492 72.9917 119.492H72.8377C72.3897 119.492 72.1657 119.679 72.1657 120.052V121.522C72.1563 121.895 72.3803 122.082 72.8377 122.082ZM81.5093 124C80.8933 124 80.4173 123.911 80.0813 123.734C79.7547 123.557 79.5307 123.314 79.4093 123.006C79.288 122.689 79.2273 122.325 79.2273 121.914V119.8C79.2273 119.427 79.288 119.086 79.4093 118.778C79.54 118.461 79.7687 118.209 80.0953 118.022C80.422 117.826 80.8933 117.728 81.5093 117.728H84.4073C85.1353 117.728 85.6907 117.817 86.0733 117.994C86.4653 118.162 86.7313 118.405 86.8713 118.722C87.0207 119.03 87.0953 119.389 87.0953 119.8V121.592H84.6453C83.8053 121.592 83.166 121.573 82.7273 121.536C82.298 121.499 81.9947 121.475 81.8173 121.466V121.676C81.808 122.049 82.032 122.236 82.4893 122.236H82.9233C83.67 122.236 84.3607 122.222 84.9953 122.194C85.63 122.157 86.1013 122.124 86.4093 122.096L87.2493 123.426C87.2493 123.519 87.17 123.608 87.0113 123.692C86.8527 123.776 86.5727 123.851 86.1713 123.916C85.7793 123.972 85.2193 124 84.4913 124H81.5093ZM81.8173 120.248H84.5053V120.052C84.5053 119.865 84.4867 119.735 84.4493 119.66C84.4213 119.585 84.3233 119.539 84.1553 119.52C83.9873 119.501 83.7027 119.492 83.3013 119.492H82.4893C82.0413 119.492 81.8173 119.679 81.8173 120.052V120.248ZM88.6505 124V117.728H90.6385L91.1705 118.008C91.5999 117.728 92.1692 117.588 92.8785 117.588C93.3452 117.588 93.7559 117.639 94.1105 117.742C94.4652 117.835 94.7499 117.938 94.9645 118.05C95.1885 118.162 95.3285 118.241 95.3845 118.288L94.6845 120.108C94.5912 120.043 94.4139 119.954 94.1525 119.842C93.9005 119.73 93.6019 119.627 93.2565 119.534C92.9112 119.431 92.5472 119.38 92.1645 119.38H92.0105C91.7492 119.38 91.5485 119.427 91.4085 119.52C91.2685 119.604 91.1985 119.795 91.1985 120.094V124H88.6505Z" fill="white"/>
</g>
<defs>
<clipPath id="clip0_594_5813">
<rect width="122" height="143" rx="5" fill="white"/>
</clipPath>
</defs>
</svg>
