<svg width="70" height="70" viewBox="0 0 70 70" fill="none" xmlns="http://www.w3.org/2000/svg">
<path d="M23.4859 2.44583H43.9342L22.7073 65.3387C22.4894 65.9852 22.074 66.5469 21.5198 66.9448C20.9657 67.3428 20.3006 67.5568 19.6184 67.5567H3.70504C3.1882 67.5566 2.6788 67.4336 2.21893 67.1977C1.75906 66.9618 1.36193 66.6199 1.06036 66.2001C0.75867 65.7805 0.561362 65.2949 0.484794 64.7838C0.408226 64.2726 0.454604 63.7506 0.620082 63.2609L20.3969 4.6633C20.6151 4.01694 21.0305 3.45526 21.5846 3.0573C22.1387 2.65935 22.8037 2.44514 23.4859 2.44482V2.44583Z" fill="url(#paint0_linear_2015_4331)"/>
<path d="M53.2 44.6304H20.7742C20.4726 44.6298 20.1779 44.7201 19.9285 44.8895C19.6791 45.0589 19.4865 45.2995 19.3758 45.58C19.2652 45.8605 19.2416 46.1678 19.3083 46.4619C19.3749 46.756 19.5286 47.0232 19.7493 47.2286L40.5853 66.6765C41.1922 67.242 41.9908 67.5566 42.8203 67.557H61.1811L53.2 44.6304Z" fill="#33596C"/>
<path d="M23.4858 2.44583C22.7961 2.44292 22.1235 2.66078 21.5664 3.06754C21.0094 3.47431 20.5971 4.04863 20.3898 4.70652L0.64467 63.2077C0.46852 63.6991 0.413288 64.2257 0.483644 64.7431C0.554 65.2604 0.747875 65.7531 1.04888 66.1797C1.34988 66.6063 1.74917 66.9541 2.21297 67.1937C2.67678 67.4334 3.19148 67.5579 3.71355 67.5567H20.038C20.646 67.4481 21.2143 67.1801 21.6848 66.78C22.1553 66.3799 22.5111 65.862 22.7158 65.2794L26.6532 53.6748L40.7185 66.7932C41.3078 67.2807 42.047 67.5503 42.8118 67.5567H61.1044L53.0814 44.63L29.6939 44.6356L44.008 2.44583H23.4858Z" fill="url(#paint1_linear_2015_4331)"/>
<path d="M49.6035 4.66026C49.3854 4.01488 48.9705 3.45412 48.4171 3.05688C47.8637 2.65964 47.1997 2.44592 46.5185 2.4458H23.7296C24.4107 2.44602 25.0746 2.65979 25.6279 3.05702C26.1812 3.45426 26.5961 4.01496 26.8141 4.66026L46.5914 63.2604C46.757 63.7502 46.8035 64.2723 46.7271 64.7836C46.6507 65.295 46.4536 65.7807 46.1522 66.2007C45.8507 66.6207 45.4535 66.9629 44.9935 67.1989C44.5335 67.4348 44.0239 67.5578 43.5069 67.5576H66.2968C66.8136 67.5573 67.3229 67.4339 67.7826 67.1978C68.2423 66.9617 68.6392 66.6196 68.9405 66.1997C69.2419 65.7798 69.4389 65.2943 69.5155 64.7832C69.592 64.2721 69.5459 63.7501 69.3808 63.2604L49.6035 4.66026Z" fill="url(#paint2_linear_2015_4331)"/>
<defs>
<linearGradient id="paint0_linear_2015_4331" x1="30.9389" y1="7.27079" x2="9.70307" y2="70.0058" gradientUnits="userSpaceOnUse">
<stop stop-color="#325A6D"/>
<stop offset="1" stop-color="#325A6D"/>
</linearGradient>
<linearGradient id="paint1_linear_2015_4331" x1="37.5722" y1="36.507" x2="32.6603" y2="38.1676" gradientUnits="userSpaceOnUse">
<stop stop-opacity="0.3"/>
<stop offset="0.071" stop-opacity="0.2"/>
<stop offset="0.321" stop-opacity="0.1"/>
<stop offset="0.623" stop-opacity="0.05"/>
<stop offset="1" stop-opacity="0"/>
</linearGradient>
<linearGradient id="paint2_linear_2015_4331" x1="34.8707" y1="5.44079" x2="58.1813" y2="67.5441" gradientUnits="userSpaceOnUse">
<stop stop-color="#33596C"/>
<stop offset="1" stop-color="#325A6D"/>
</linearGradient>
</defs>
</svg>
