<svg width="18" height="18" viewBox="0 0 18 18" fill="none" xmlns="http://www.w3.org/2000/svg">
<path d="M14.8333 16.9999H11.1667V11.2227V10.7227H10.6667H7.33334H6.83334V11.2227V16.9999H3.16667C3.09059 16.9999 3.0095 16.9677 2.94368 16.8969C2.87671 16.8248 2.83334 16.7197 2.83334 16.6032V9.42924V8.92924H2.33334H1.81388L8.77705 1.43623C8.84287 1.36543 8.92394 1.33325 9.00001 1.33325C9.07607 1.33325 9.15714 1.36543 9.22296 1.43623L16.1861 8.92924H15.6667H15.1667V9.42924V16.6032C15.1667 16.7197 15.1233 16.8248 15.0563 16.8969L15.4226 17.2373L15.0563 16.8969C14.9905 16.9677 14.9094 16.9999 14.8333 16.9999Z" stroke="black"/>
</svg>
