<svg width="65" height="50" viewBox="0 0 65 50" fill="none" xmlns="http://www.w3.org/2000/svg">
<path d="M24.5291 46.6686H16.0416C11.6666 46.6686 7.81661 45.2103 4.69577 42.0895C1.57494 39.027 -6.10352e-05 35.2645 -6.10352e-05 30.8603C-6.10352e-05 27.0686 1.13744 23.6853 3.41244 20.7103C5.63144 17.8023 8.81812 15.7848 12.3958 15.0228C13.6208 10.5603 16.0416 6.94362 19.6874 4.17279C23.3333 1.46029 27.4749 0.00195312 32.0833 0.00195312C37.7708 0.00195312 42.6124 1.98529 46.5499 5.95195C50.5166 9.88945 52.4999 14.7311 52.4999 20.4186C55.8541 20.7978 58.6541 22.2561 60.8416 24.7936C62.7083 26.9228 63.7583 29.3436 64.0499 32.0853H58.2166C57.9249 30.627 57.2833 29.4311 56.2041 28.3811C54.8041 26.952 53.0833 26.252 51.0416 26.252H46.6666V20.4186C46.6666 16.3936 45.2083 12.952 42.4083 10.0936C39.5791 7.29362 36.1374 5.83529 32.0833 5.83529C28.0583 5.83529 24.6166 7.29362 21.7583 10.0936C18.9583 12.952 17.4999 16.3936 17.4999 20.4186H16.0416C13.2124 20.4186 10.8208 21.4103 8.83744 23.4228C6.82494 25.4061 5.83327 27.7978 5.83327 30.627C5.83327 33.4561 6.82494 35.877 8.83744 37.9186C10.8208 39.8728 13.2124 40.8353 16.0416 40.8353H23.3333C23.3333 42.9353 23.7708 44.8895 24.5291 46.6686ZM64.1666 37.9186V43.752H58.3333V49.5853H52.4999V43.752H46.0833C44.9166 47.252 41.7083 49.5853 37.9166 49.5853C32.9583 49.5853 29.1666 45.7936 29.1666 40.8353C29.1666 35.877 32.9583 32.0853 37.9166 32.0853C41.7083 32.0853 44.9166 34.4186 46.0833 37.9186H64.1666ZM40.8333 40.8353C40.8333 39.377 39.6666 37.9186 37.9166 37.9186C36.1666 37.9186 34.9999 39.377 34.9999 40.8353C34.9999 42.2936 36.1666 43.752 37.9166 43.752C39.6666 43.752 40.8333 42.2936 40.8333 40.8353Z" fill="#325A6D"/>
</svg>
