<svg width="20" height="20" viewBox="0 0 20 20" fill="none" xmlns="http://www.w3.org/2000/svg">
<path d="M18.5964 7.14355H11.7415V3.56817H12.0797C12.367 3.56817 12.6015 3.33453 12.6015 3.04635V1.44544C12.6015 0.649075 11.9533 0 11.156 0L1.44642 0.000908978C0.649107 0.000908978 0 0.649099 0 1.44635V3.04726C0 3.33453 0.233646 3.56908 0.521846 3.56908H0.860038V10.9028C0.344569 11.0846 0.000907692 11.5682 0.000907692 12.1155V13.4391C0.000907692 13.7264 0.234554 13.9609 0.522754 13.9609H0.712763V19.4782C0.712763 19.7655 0.94641 20 1.23461 20L18.6581 19.9991C18.9454 19.9991 19.1799 19.7655 19.1799 19.4773L19.179 10.5992H19.4782C19.7654 10.5992 20 10.3656 20 10.0774V8.54831C20 7.77377 19.37 7.14376 18.5954 7.14376L18.5964 7.14355ZM9.89683 13.9608H10.0859C10.3732 13.9608 10.6078 13.7272 10.6078 13.439V12.1154C10.6078 11.5826 10.2759 11.1026 9.77864 10.9135V10.599H12.2724V14.048C12.2724 14.2598 12.3988 14.4489 12.5943 14.5298C12.6579 14.5562 12.7252 14.5698 12.7934 14.5698C12.9325 14.5698 13.0634 14.5153 13.1625 14.4171L13.958 13.6216L14.7535 14.4171C14.8517 14.5153 14.9826 14.5698 15.1226 14.5698C15.1917 14.5698 15.258 14.5562 15.3217 14.5298C15.5171 14.4489 15.6435 14.2598 15.6435 14.048V10.599H18.1373V18.9562H9.89695L9.89683 13.9608ZM14.6007 12.789L14.327 12.5153C14.2289 12.4172 14.0979 12.3626 13.9579 12.3626C13.8189 12.3626 13.6879 12.4172 13.5889 12.5153L13.3152 12.789V10.5981H14.6007V12.789ZM4.10118 17.3462C4.16482 17.3726 4.23209 17.3862 4.30028 17.3862C4.43938 17.3862 4.5703 17.3317 4.66938 17.2335L5.30487 16.5981L5.94036 17.2335C6.03855 17.3317 6.16946 17.3862 6.30946 17.3862C6.37856 17.3862 6.44492 17.3726 6.50856 17.3462C6.70402 17.2653 6.83039 17.0762 6.83039 16.8644V13.96H8.85412V18.9555L1.7556 18.9564V13.9609H3.77933V16.8653C3.77933 17.0772 3.9057 17.2663 4.10116 17.3471L4.10118 17.3462ZM5.78762 15.6053L5.67398 15.4917C5.57579 15.3935 5.44488 15.339 5.30488 15.339C5.16578 15.339 5.03486 15.3935 4.93578 15.4917L4.82214 15.6053V13.9599H5.78763L5.78762 15.6053ZM7.91499 8.54719V10.0763C7.91499 10.3636 8.14864 10.5981 8.43684 10.5981H8.73595V10.8281L1.90392 10.829V3.56816H4.5704V7.1717C4.5704 7.38352 4.69677 7.57262 4.89223 7.65352C4.95587 7.67988 5.02315 7.69352 5.09224 7.69352C5.23134 7.69352 5.36226 7.63897 5.46134 7.54079L6.30229 6.70079L7.14325 7.54079C7.24144 7.63897 7.37235 7.69352 7.51235 7.69352C7.58144 7.69352 7.64872 7.67988 7.71236 7.65352C7.90782 7.57261 8.03419 7.38351 8.03419 7.1717V3.56816H10.7007V7.14354H9.3206C8.54603 7.14354 7.91598 7.77353 7.91598 8.54809L7.91499 8.54719ZM6.98948 5.91366L6.67037 5.59456C6.57219 5.49638 6.44127 5.44184 6.30218 5.44184C6.16309 5.44184 6.03216 5.49638 5.93399 5.59456L5.61488 5.91366V3.56824H6.99041V5.91366H6.98948ZM11.5588 2.52469L1.04372 2.5256V1.44651C1.04372 1.2247 1.22463 1.04469 1.44647 1.04469L11.1561 1.04378C11.3743 1.04378 11.5579 1.22832 11.5579 1.44561V2.52469H11.5588ZM1.04372 12.1156C1.04372 11.9838 1.15463 11.8729 1.28646 11.8729L9.32059 11.8719C9.45242 11.8719 9.56334 11.9829 9.56334 12.1147V12.9174H1.04395V12.1147L1.04372 12.1156ZM8.95775 8.54835C8.95775 8.34926 9.11958 8.18744 9.31868 8.18744H18.5963C18.7954 8.18744 18.9573 8.34926 18.9573 8.54835V9.55653L8.95766 9.55562V8.54745L8.95775 8.54835Z" fill="black"/>
</svg>
