<svg width="21" height="21" viewBox="0 0 21 21" fill="none" xmlns="http://www.w3.org/2000/svg">
<path d="M4.7881 17.3362V14.7587H6.29969V17.3362L5.78397 16.8205C5.65162 16.6882 5.43711 16.6882 5.30384 16.8205L4.7881 17.3362ZM10.4201 12.9752C10.4201 12.7023 10.1983 12.4805 9.92536 12.4805L1.16169 12.4796C0.888756 12.4796 0.666954 12.7013 0.666954 12.9743V14.0787L10.42 14.0796L10.4201 12.9752ZM16.5923 15.0827C16.5923 15.2196 16.5093 15.3437 16.3833 15.3967C16.3413 15.414 16.2975 15.4222 16.2537 15.4222C16.1651 15.4222 16.0784 15.3875 16.0136 15.3227L14.984 14.2941L13.9553 15.3227C13.8586 15.4195 13.7125 15.4487 13.5857 15.3967C13.4588 15.3437 13.3757 15.2205 13.3757 15.0827V11.0913H10.1957V11.8333C10.7132 11.9556 11.0993 12.4211 11.0993 12.9752V14.4191C11.0993 14.6062 10.9478 14.7587 10.7598 14.7587H10.3244V20.6667H19.7718L19.7708 11.0914H16.5917V15.0827L16.5923 15.0827ZM6.97879 18.1548C6.97879 18.2917 6.89572 18.4159 6.76976 18.4688C6.64288 18.5218 6.49683 18.4926 6.40009 18.3958L5.5448 17.5415L4.68951 18.3958C4.6247 18.4606 4.53799 18.4953 4.44946 18.4953C4.40564 18.4953 4.36183 18.4871 4.31984 18.4697C4.19296 18.4168 4.11081 18.2936 4.11081 18.1557V14.7595L1.44367 14.7586V20.6667H9.64512V14.7586H6.97892L6.97879 18.1548ZM6.87108 6.02366L7.61135 6.76299L7.61227 3.42048H5.65161V6.76205L6.39189 6.02273C6.52424 5.89038 6.73875 5.89038 6.87201 6.02273L6.87108 6.02366ZM15.223 13.5737L15.9131 14.2637V11.092H14.0537V14.2637L14.7429 13.5746C14.8752 13.4423 15.0907 13.4423 15.223 13.5746V13.5737ZM9.92332 7.78149H11.6576V3.42046H8.29132L8.29041 7.58171C8.29041 7.71862 8.20734 7.84275 8.08047 7.89477C8.03848 7.91211 7.99466 7.92033 7.95085 7.92033C7.86231 7.92033 7.7756 7.88564 7.7108 7.82084L6.63188 6.74289L5.55297 7.82084C5.45621 7.91759 5.31016 7.94679 5.1833 7.89386C5.05642 7.84092 4.97427 7.7177 4.97427 7.57986L4.97244 3.42048H1.60428V11.8012H9.51622V11.0911H8.96033C8.77321 11.0911 8.62078 10.9395 8.62078 10.7515V9.08305C8.62078 8.36473 9.20496 7.78058 9.92332 7.78058L9.92332 7.78149ZM20.0442 8.46055L9.92238 8.45964C9.57825 8.45964 9.29894 8.73893 9.29894 9.08305V10.412H20.6667V9.08305C20.6667 8.73893 20.3874 8.45964 20.0432 8.45964L20.0442 8.46055ZM12.5949 1.33579C12.5949 0.967048 12.2955 0.666748 11.9267 0.666748H1.33574C0.966981 0.666748 0.666664 0.967048 0.666664 1.33579V2.74139H12.595L12.5949 1.33579Z" fill="#325A6D"/>
</svg>
