<svg width="25" height="25" viewBox="0 0 25 25" fill="none" xmlns="http://www.w3.org/2000/svg">
<path fill-rule="evenodd" clip-rule="evenodd" d="M15.1316 0H9.86842C8.77829 0 7.89474 0.883553 7.89474 1.97368V7.23684C7.89474 7.46776 7.93421 7.68882 8.00724 7.89474H5.92105C4.83092 7.89474 3.94737 8.77829 3.94737 9.86842V15.1316C3.94737 15.3625 3.98684 15.5836 4.05987 15.7895H1.97368C0.883553 15.7895 0 16.673 0 17.7632V23.0263C0 24.1164 0.883553 25 1.97368 25H7.23684C7.74211 25 8.20329 24.8099 8.55263 24.4974C8.90197 24.8099 9.36316 25 9.86842 25H15.1316C15.6368 25 16.098 24.8099 16.4474 24.4974C16.7967 24.8099 17.2579 25 17.7632 25H23.0263C24.1164 25 25 24.1164 25 23.0263V17.7632C25 16.673 24.1164 15.7895 23.0263 15.7895H20.9401C21.0132 15.5836 21.0526 15.3625 21.0526 15.1316V9.86842C21.0526 8.77829 20.1691 7.89474 19.0789 7.89474H16.9928C17.0658 7.68882 17.1053 7.46776 17.1053 7.23684V1.97368C17.1053 0.883553 16.2217 0 15.1316 0ZM6.57895 17.1053V18.4211C6.57895 19.148 5.99013 19.7368 5.26316 19.7368H3.94737C3.22039 19.7368 2.63158 19.148 2.63158 18.4211V17.1053H1.97368C1.61053 17.1053 1.31579 17.4 1.31579 17.7632V23.0263C1.31579 23.3895 1.61053 23.6842 1.97368 23.6842H7.23684C7.6 23.6842 7.89474 23.3895 7.89474 23.0263V17.7632C7.89474 17.4 7.6 17.1053 7.23684 17.1053H6.57895ZM22.3684 17.1053V18.4211C22.3684 19.148 21.7796 19.7368 21.0526 19.7368H19.7368C19.0099 19.7368 18.4211 19.148 18.4211 18.4211V17.1053H17.7632C17.4 17.1053 17.1053 17.4 17.1053 17.7632V23.0263C17.1053 23.3895 17.4 23.6842 17.7632 23.6842H23.0263C23.3895 23.6842 23.6842 23.3895 23.6842 23.0263V17.7632C23.6842 17.4 23.3895 17.1053 23.0263 17.1053H22.3684ZM14.4737 17.1053V18.4211C14.4737 19.148 13.8849 19.7368 13.1579 19.7368H11.8421C11.1151 19.7368 10.5263 19.148 10.5263 18.4211V17.1053H9.86842C9.50526 17.1053 9.21053 17.4 9.21053 17.7632V23.0263C9.21053 23.3895 9.50526 23.6842 9.86842 23.6842H15.1316C15.4947 23.6842 15.7895 23.3895 15.7895 23.0263V17.7632C15.7895 17.4 15.4947 17.1053 15.1316 17.1053H14.4737ZM10.5263 9.21053V10.5263C10.5263 11.2533 9.9375 11.8421 9.21053 11.8421H7.89474C7.16776 11.8421 6.57895 11.2533 6.57895 10.5263V9.21053H5.92105C5.55789 9.21053 5.26316 9.50526 5.26316 9.86842V15.1316C5.26316 15.4947 5.55789 15.7895 5.92105 15.7895H11.1842C11.5474 15.7895 11.8421 15.4947 11.8421 15.1316V9.86842C11.8421 9.50526 11.5474 9.21053 11.1842 9.21053H10.5263ZM18.4211 9.21053V10.5263C18.4211 11.2533 17.8322 11.8421 17.1053 11.8421H15.7895C15.0625 11.8421 14.4737 11.2533 14.4737 10.5263V9.21053H13.8158C13.4526 9.21053 13.1579 9.50526 13.1579 9.86842V15.1316C13.1579 15.4947 13.4526 15.7895 13.8158 15.7895H19.0789C19.4421 15.7895 19.7368 15.4947 19.7368 15.1316V9.86842C19.7368 9.50526 19.4421 9.21053 19.0789 9.21053H18.4211ZM14.4737 1.31579V2.63158C14.4737 3.35855 13.8849 3.94737 13.1579 3.94737H11.8421C11.1151 3.94737 10.5263 3.35855 10.5263 2.63158V1.31579H9.86842C9.50526 1.31579 9.21053 1.61053 9.21053 1.97368V7.23684C9.21053 7.6 9.50526 7.89474 9.86842 7.89474H15.1316C15.4947 7.89474 15.7895 7.6 15.7895 7.23684V1.97368C15.7895 1.61053 15.4947 1.31579 15.1316 1.31579H14.4737Z" fill="white"/>
</svg>
