<svg width="24" height="21" viewBox="0 0 24 21" fill="none" xmlns="http://www.w3.org/2000/svg">
<path d="M0.368443 20.6667C0.165033 20.6667 0 20.4456 0 20.1731C0 19.9006 0.165033 19.6795 0.368443 19.6795H1.75489V14.5837C1.75489 14.3112 1.91993 14.0901 2.12334 14.0901H5.57835C5.78176 14.0901 5.9468 14.3112 5.9468 14.5837V19.6795H6.96576V9.88123C6.96576 9.6087 7.13079 9.38759 7.3342 9.38759H10.7892C10.9926 9.38759 11.1577 9.6087 11.1577 9.88123V19.6795H12.1757V12.2336C12.1757 11.9611 12.3407 11.74 12.5441 11.74H15.9991C16.2025 11.74 16.3676 11.9611 16.3676 12.2336V19.6795H17.3865V7.52983C17.3865 7.2573 17.5516 7.03619 17.755 7.03619H21.21C21.4134 7.03619 21.5784 7.2573 21.5784 7.52983V19.6795H22.9649C23.1683 19.6795 23.3333 19.9006 23.3333 20.1731C23.3333 20.4456 23.1683 20.6667 22.9649 20.6667H0.367043H0.368443ZM19.1792 5.47166C19.1274 5.73391 18.9249 5.89073 18.7292 5.82132C18.5335 5.7519 18.4164 5.48064 18.4682 5.21841L18.8741 3.18982L14.4785 7.15578C14.3864 7.23677 14.2684 7.26376 14.1562 7.21363L9.11781 4.94081L4.05737 9.50704C3.8885 9.65874 3.66014 9.5996 3.54693 9.37335C3.43371 9.14709 3.47785 8.84113 3.64672 8.68945L8.85773 3.98697C8.96327 3.89185 9.09184 3.88027 9.20122 3.93812L14.2184 6.20195L18.609 2.23995L16.9271 1.63576C16.7313 1.56634 16.6143 1.29507 16.6661 1.03285C16.7179 0.770602 16.9203 0.613777 17.1161 0.683184L19.58 1.56763C19.7757 1.63705 19.8927 1.90832 19.8409 2.17054L19.1808 5.4704L19.1792 5.47166Z" fill="#325A6D"/>
</svg>
