<svg width="24" height="18" viewBox="0 0 24 18" fill="none" xmlns="http://www.w3.org/2000/svg">
<path d="M0.709607 17.3334C0.501829 17.3334 0.333252 17.1452 0.333252 16.9133C0.333252 16.6814 0.501829 16.4932 0.709607 16.4932H2.08664V12.2603C2.08664 12.0284 2.25522 11.8402 2.46299 11.8402H5.91593C6.1237 11.8402 6.29228 12.0284 6.29228 12.2603V16.4932H7.29394V8.34448C7.29394 8.11254 7.46251 7.92436 7.67029 7.92436H11.1232C11.331 7.92436 11.4996 8.11254 11.4996 8.34448V16.4932H12.5003V10.3028C12.5003 10.0709 12.6688 9.88269 12.8766 9.88269H16.3295C16.5373 9.88269 16.7059 10.0709 16.7059 10.3028V16.4932H17.7076V6.38727C17.7076 6.15533 17.8761 5.96715 18.0839 5.96715H21.5368C21.7446 5.96715 21.9132 6.15533 21.9132 6.38727V16.4932H23.2902C23.498 16.4932 23.6666 16.6814 23.6666 16.9133C23.6666 17.1452 23.498 17.3334 23.2902 17.3334H0.70893H0.709607ZM19.5146 4.67625C19.4616 4.89945 19.2548 5.03291 19.0549 4.97384C18.855 4.91476 18.7354 4.6839 18.7883 4.46073L19.1882 2.79447L14.822 6.07674C14.7279 6.15224 14.6034 6.1774 14.4848 6.13364L9.45397 4.24199L4.40052 8.04158C4.22802 8.17068 3.99476 8.12035 3.87912 7.92779C3.76347 7.73524 3.80855 7.47485 3.98105 7.34576L9.1883 3.43022C9.29611 3.34926 9.42744 3.33941 9.53916 3.38974L14.5494 5.27374L18.9187 1.98922L17.2535 1.49143C17.0536 1.43235 16.934 1.20149 16.9869 0.978321C17.0398 0.755152 17.2467 0.621665 17.4466 0.680734L19.9086 1.41704C20.1085 1.47612 20.2281 1.70698 20.1752 1.93015L19.5156 4.67736L19.5146 4.67625ZM18.461 16.4932H21.1612V6.80739H18.461V16.4932ZM8.04748 16.4932H10.7477V8.7646H8.04748V16.4932ZM13.2547 16.4932H15.9549V10.7229H13.2547V16.4932ZM2.84123 16.4932H5.54145V12.6804H2.84123V16.4932Z" fill="black"/>
</svg>
