<svg width="21" height="21" viewBox="0 0 21 21" fill="none" xmlns="http://www.w3.org/2000/svg">
<path d="M17.8591 0.166748H2.47444C1.8624 0.166748 1.27543 0.409879 0.842656 0.842656C0.409879 1.27543 0.166748 1.8624 0.166748 2.47444V17.8591C0.166748 18.4711 0.409879 19.0581 0.842656 19.4908C1.27543 19.9236 1.8624 20.1667 2.47444 20.1667H6.58136C8.78675 19.3491 9.0129 17.2952 9.0129 14.7821V10.6444L7.90598 11.7521C7.68952 11.9686 7.39594 12.0902 7.08983 12.0902C6.78371 12.0902 6.49013 11.9686 6.27367 11.7521C6.05721 11.5357 5.93561 11.2421 5.93561 10.936C5.93561 10.6299 6.05721 10.3363 6.27367 10.1198L9.35059 7.0429C9.45775 6.93568 9.58498 6.85062 9.72502 6.79259C9.86506 6.73456 10.0152 6.70469 10.1667 6.70469C10.3183 6.70469 10.4684 6.73456 10.6085 6.79259C10.7485 6.85062 10.8757 6.93568 10.9829 7.0429L14.0598 10.1198C14.2763 10.3363 14.3979 10.6299 14.3979 10.936C14.3979 11.2421 14.2763 11.5357 14.0598 11.7521C13.8434 11.9686 13.5498 12.0902 13.2437 12.0902C12.9376 12.0902 12.644 11.9686 12.4275 11.7521L11.3206 10.6444V14.7821C11.3206 16.0967 11.3114 18.366 10.136 20.1667H17.8591C18.4711 20.1667 19.0581 19.9236 19.4908 19.4908C19.9236 19.0581 20.1667 18.4711 20.1667 17.8591V2.47444C20.1667 1.8624 19.9236 1.27543 19.4908 0.842656C19.0581 0.409879 18.4711 0.166748 17.8591 0.166748Z" fill="#325A6D"/>
</svg>
