<svg width="21" height="21" viewBox="0 0 21 21" fill="none" xmlns="http://www.w3.org/2000/svg">
<path d="M10.9852 19.6667C11.8205 17.8946 11.8205 15.9188 11.8205 14.7881V14.7821V11.8521L12.0737 12.1056L12.0739 12.1057C12.3841 12.4159 12.8049 12.5902 13.2436 12.5902C13.6823 12.5902 14.1031 12.4159 14.4133 12.1057C14.7235 11.7955 14.8978 11.3747 14.8978 10.936C14.8978 10.4973 14.7235 10.0765 14.4133 9.76627L11.3365 6.68946C11.3364 6.68942 11.3364 6.68939 11.3364 6.68935C11.1828 6.53572 11.0005 6.41384 10.7998 6.33068C10.5991 6.2475 10.3839 6.20469 10.1667 6.20469C9.94938 6.20469 9.73423 6.2475 9.53351 6.33068C9.33284 6.41384 9.15051 6.53572 8.99695 6.68935C8.99691 6.68939 8.99687 6.68942 8.99684 6.68946L5.92003 9.76627C5.6098 10.0765 5.43552 10.4973 5.43552 10.936C5.43552 11.3747 5.6098 11.7955 5.92003 12.1057C6.23025 12.4159 6.65101 12.5902 7.08973 12.5902C7.52846 12.5902 7.94921 12.4159 8.25944 12.1057L8.25956 12.1056L8.51281 11.8521V14.7821C8.51281 16.0404 8.45312 17.1026 8.15321 17.942C7.87475 18.7214 7.38919 19.3099 6.48879 19.6667H2.47435C1.99492 19.6667 1.53513 19.4763 1.19612 19.1373C0.857109 18.7983 0.666656 18.3385 0.666656 17.8591V2.47444C0.666656 1.99501 0.857109 1.53522 1.19612 1.19621C1.53513 0.857201 1.99492 0.666748 2.47435 0.666748H17.859C18.3384 0.666748 18.7982 0.857201 19.1372 1.19621C19.4762 1.53522 19.6667 1.99501 19.6667 2.47444V17.8591C19.6667 18.3385 19.4762 18.7983 19.1372 19.1373C18.7982 19.4763 18.3384 19.6667 17.859 19.6667H10.9852Z" stroke="black"/>
</svg>
