<svg width="16" height="16" viewBox="0 0 16 16" fill="none" xmlns="http://www.w3.org/2000/svg">
<path d="M15.8693 3.91692L8.12992 0.0304203C8.04966 -0.0101401 7.95029 -0.0101401 7.86927 0.0304203L0.130708 3.91692C0.0496851 3.95749 0 4.03262 0 4.11307V11.8868C0 11.9679 0.0496851 12.0424 0.130708 12.0829L7.87006 15.9694C7.91057 15.9894 7.95567 16 8 16C8.0451 16 8.0902 15.99 8.12994 15.9694L15.8693 12.0829C15.9503 12.0423 16 11.9672 16 11.8868V4.11375C16 4.03263 15.9503 3.95816 15.8693 3.91761L15.8693 3.91692ZM7.99999 11.0125C6.09058 11.0125 4.53743 9.66132 4.53743 8.00038C4.53743 6.33944 6.09064 4.9883 7.99999 4.9883C9.90934 4.9883 11.4625 6.33944 11.4625 8.00038C11.4625 9.66132 9.90934 11.0125 7.99999 11.0125ZM7.99999 4.53466C6.62105 4.53466 5.40409 5.14707 4.68869 6.0753L3.6843 5.57063L10.9024 1.94542L12.3157 2.65556L8.51598 4.56392C8.34705 4.54464 8.17506 4.534 8.00003 4.534L7.99999 4.53466ZM4.42804 6.46821C4.16509 6.93033 4.01604 7.4503 4.01604 8.00021C4.01604 8.20566 4.0382 8.40648 4.07719 8.60264L3.4634 8.29478L3.429 5.96682L4.42728 6.46818L4.42804 6.46821ZM9.26193 4.71407L12.8376 2.91806L15.2186 4.1136L11.3119 6.07575C10.825 5.44407 10.1057 4.95933 9.26173 4.71397L9.26193 4.71407ZM8.00071 0.489168L10.3817 1.6847L3.16369 5.30992L0.782656 4.11438L7.99993 0.488487L8.00071 0.489168ZM0.521227 4.50606L2.90383 5.70293L2.94434 8.4292C2.94511 8.50899 2.99479 8.5828 3.07428 8.62269L4.27283 9.22446C4.81324 10.4659 6.15014 11.3682 7.73852 11.4579V15.381L0.520462 11.7558L0.521227 4.50606ZM8.26058 15.381V11.4579C10.3365 11.3409 11.9838 9.8355 11.9838 8.00038C11.9838 7.45047 11.8355 6.9305 11.5718 6.46838L15.4778 4.50691V11.7567L8.2597 15.3819L8.26058 15.381ZM14.03 10.8017C14.1019 10.9101 14.0591 11.0491 13.9345 11.1116L11.9998 12.083C11.9586 12.1036 11.9142 12.1136 11.8699 12.1136C11.7797 12.1136 11.6926 12.0731 11.6436 11.9999C11.5718 11.8915 11.6146 11.7526 11.7392 11.6901L13.6738 10.7186C13.7984 10.6561 13.9582 10.6933 14.03 10.8017ZM10.3174 6.74159C10.419 6.83002 10.419 6.97365 10.3174 7.06208L7.79349 9.25828C7.74457 9.30084 7.67807 9.32477 7.60927 9.32477C7.54048 9.32477 7.47398 9.30084 7.42506 9.25828L5.68382 7.74358C5.58215 7.65514 5.58215 7.51152 5.68382 7.42309C5.78548 7.33465 5.95059 7.33465 6.05224 7.42309L7.60927 8.77754L9.94902 6.7422C10.0507 6.65376 10.2158 6.65376 10.3174 6.7422L10.3174 6.74159Z" fill="white"/>
</svg>